<svg width="63" height="13" viewBox="0 0 63 13" fill="none" xmlns="http://www.w3.org/2000/svg">
<path d="M4.89686 1.8834C4.1435 1.8834 3.95516 2.26008 3.95516 2.9193V4.14348H5.93273L5.74439 6.12108H3.95516V12.0538H1.6009V6.12108H0V4.14348H1.6009V3.01344C1.6009 1.0359 2.35426 0 4.61435 0C5.0852 0 5.65022 -2.5034e-07 5.93273 0.0941998V1.8834" fill="white"/>
<path d="M6.12108 7.81608C6.12108 5.6502 7.15692 3.95508 9.32286 3.95508C10.5471 3.95508 11.2063 4.52016 11.5829 5.36766V4.14342H13.843V11.9596H11.5829V10.7354C11.2063 11.4887 10.5471 12.0538 9.32286 12.0538C7.15692 12.0538 6.12108 10.4528 6.12108 8.19276V7.81608ZM8.47536 8.3811C8.47536 9.51114 8.94618 10.3587 9.98208 10.3587C10.9238 10.3587 11.4888 9.60534 11.4888 8.56944V7.72194C11.4888 6.5919 11.0179 5.93268 9.98208 5.93268C8.94618 5.83854 8.47536 6.68604 8.47536 7.81608V8.3811Z" fill="white"/>
<path d="M18.8341 4.04932C19.7758 4.04932 20.6233 4.23766 21.0941 4.61434L20.5291 6.30946C20.1524 6.12112 19.5874 5.93278 18.9282 5.93278C17.6098 5.93278 17.0448 6.68614 17.0448 7.91032V8.3812C17.0448 9.60538 17.6098 10.3587 18.9282 10.3587C19.5874 10.3587 20.1524 10.1704 20.5291 9.98206L21.0941 11.6772C20.6233 12.0539 19.7758 12.2422 18.8341 12.2422C16.0089 12.2422 14.7847 10.7354 14.7847 8.3812V7.91032C14.7847 5.4619 16.0089 4.04932 18.8341 4.04932Z" fill="white"/>
<path d="M21.3766 8.3812V7.72198C21.3766 5.4619 22.6009 4.04932 25.2376 4.04932C27.686 4.04932 28.7219 5.5561 28.7219 7.72198V8.94622H23.7309C23.825 9.98206 24.2959 10.4529 25.6143 10.4529C26.4619 10.4529 27.4036 10.2646 28.1569 9.98206L28.6277 11.583C27.9686 11.8655 26.7443 12.148 25.6143 12.148C22.5067 12.148 21.3766 10.7354 21.3766 8.3812ZM23.7309 7.3453H26.556V7.15696C26.556 6.30946 26.1793 5.65024 25.1435 5.65024C24.2017 5.65024 23.7309 6.30946 23.7309 7.3453Z" fill="white"/>
<path d="M37.574 8.38116C37.574 10.5471 36.5381 12.2422 34.3722 12.2422C33.148 12.2422 32.3946 11.6771 32.0179 10.9238V12.148H29.7578V0.18834L32.1121 0V5.27352C32.4887 4.61436 33.2421 4.04934 34.278 4.04934C36.4439 4.04934 37.4798 5.6502 37.4798 7.91034L37.574 8.38116ZM35.2197 7.81614C35.2197 6.6861 34.7489 5.93274 33.6188 5.93274C32.6771 5.93274 32.1121 6.5919 32.1121 7.722V8.47536C32.1121 9.6054 32.6771 10.2646 33.6188 10.2646C34.7489 10.2646 35.2197 9.41706 35.2197 8.38116V7.81614Z" fill="white"/>
<path d="M38.3273 8.287V7.91032C38.3273 5.65024 39.6456 4.04932 42.1883 4.04932C44.825 4.04932 46.1434 5.65024 46.1434 7.91032V8.287C46.1434 10.5471 44.825 12.148 42.2825 12.148C39.6457 12.148 38.3273 10.5471 38.3273 8.287ZM43.7892 7.72198C43.7892 6.68614 43.3183 5.83858 42.2825 5.83858C41.1524 5.83858 40.7758 6.68614 40.7758 7.72198V8.47534C40.7758 9.51124 41.2466 10.3587 42.2825 10.3587C43.4125 10.3587 43.7892 9.51124 43.7892 8.47534V7.72198Z" fill="white"/>
<path d="M46.8969 8.287V7.91032C46.8969 5.65024 48.2153 4.04932 50.7579 4.04932C53.3947 4.04932 54.6189 5.65024 54.6189 7.91032V8.287C54.6189 10.5471 53.3005 12.148 50.7579 12.148C48.2153 12.148 46.8969 10.5471 46.8969 8.287ZM52.3588 7.72198C52.3588 6.68614 51.888 5.83858 50.8521 5.83858C49.722 5.83858 49.3453 6.68614 49.3453 7.72198V8.47534C49.3453 9.51124 49.8162 10.3587 50.8521 10.3587C51.9821 10.3587 52.3588 9.51124 52.3588 8.47534V7.72198Z" fill="white"/>
<path d="M58.0089 7.91034L60.363 4.14348H62.9058L60.363 8.00448L63 12.0538H60.4572L58.0089 8.19282V12.0538H55.6547V0.18834L58.0089 0" fill="white"/>
</svg>
