<svg width="65" height="24" viewBox="0 0 65 24" fill="none" xmlns="http://www.w3.org/2000/svg">
<path fill-rule="evenodd" clip-rule="evenodd" d="M34.0773 8.2242C33.5334 7.7748 32.6056 7.5504 31.293 7.5504H28.3322V16.5432H30.5458V13.7244H31.5381C32.7415 13.7244 33.6241 13.4646 34.1858 12.9432C34.8185 12.3594 35.137 11.5812 35.137 10.611C35.137 9.6042 34.7839 8.8086 34.0773 8.2242ZM31.4833 11.6898H30.5458V9.585H31.3878C32.4111 9.585 32.9234 9.9384 32.9234 10.644C32.9234 11.34 32.4433 11.6898 31.4833 11.6898ZM38.9255 7.5498H36.6171V16.5426H41.6012V14.5074H38.9255V7.5498ZM46.1244 7.5498L42.4981 16.5426H44.9836L45.4589 15.2352H48.6099L49.0452 16.5426H51.5581L47.9569 7.5498H46.1244ZM46.0975 13.4148L47.0481 10.341L47.9843 13.4148H46.0975ZM52.7114 16.5426H55.0204V7.5498H52.7114V16.5426ZM63.985 9.2352C63.6917 8.81784 63.3172 8.46472 62.8842 8.1972C62.1877 7.7652 61.2366 7.5504 60.032 7.5504H56.9901V16.5426H60.5484C61.8347 16.5426 62.8663 16.1298 63.6451 15.3024C64.4239 14.4762 64.8128 13.3788 64.8128 12.0126C64.8128 10.9254 64.5372 9.9996 63.985 9.2352ZM60.2902 14.5068H59.2991V9.5856H60.3045C61.0106 9.5856 61.5532 9.8028 61.9337 10.2366C62.3147 10.6698 62.505 11.2842 62.505 12.0804C62.505 13.698 61.7667 14.5068 60.2902 14.5068ZM9.58661 0L2.10385 1.926L0.0417431 9.3216L2.62087 11.9244L0 14.484L1.94106 21.912L9.39101 23.958L12.0125 21.3978L14.5922 24L22.075 22.074L24.1371 14.6778L21.5579 12.0762L24.1788 9.5166L22.2378 2.088L14.786 0.042L12.1657 2.6016L9.58661 0ZM4.99486 3.3486L8.93661 2.3334L10.66 4.0728L8.14647 6.5274L4.99486 3.3486ZM13.6476 4.0962L15.3996 2.3862L19.3241 3.4638L16.1212 6.5916L13.6476 4.0962ZM2.40321 8.7144L3.48913 4.8192L6.63954 7.9986L4.12661 10.4532L2.40321 8.7144ZM17.6019 8.0862L20.8054 4.9572L21.8269 8.8704L20.0755 10.581L17.6019 8.0862ZM9.62775 8.022L12.1419 5.5674L14.6143 8.0628L12.1013 10.5174L9.62775 8.022ZM5.60849 11.9478L8.12202 9.4926L10.5962 11.9886L8.08147 14.4426L5.60849 11.9478ZM13.5832 12.012L16.0961 9.5568L18.5697 12.0528L16.0556 14.5068L13.5832 12.012ZM2.35073 15.1296L4.10275 13.4184L6.57573 15.9144L3.37344 19.0416L2.35073 15.1296ZM9.56335 15.9372L12.0769 13.4826L14.5499 15.978L12.0369 18.4326L9.56335 15.9372ZM17.5375 16.002L20.051 13.5474L21.7744 15.2856L20.6891 19.1808L17.5375 16.002ZM4.85413 20.5368L8.05642 17.4078L10.5312 19.9038L8.77917 21.615L4.85413 20.5368ZM13.5182 19.9272L16.0317 17.4726L19.1828 20.652L15.241 21.666L13.5182 19.9272Z" fill="white"/>
</svg>
