<svg width="63" height="16" viewBox="0 0 63 16" fill="none" xmlns="http://www.w3.org/2000/svg">
<path fill-rule="evenodd" clip-rule="evenodd" d="M2.63176 0.200195H13.1182C13.8163 0.199991 14.486 0.477173 14.9797 0.970751C15.4734 1.46432 15.7508 2.13382 15.7508 2.83198V13.3176C15.7508 14.7716 14.5721 15.9502 13.1182 15.9502H2.63176C1.17815 15.9498 0 14.7713 0 13.3176V2.83198C0 1.37847 1.17827 0.200195 2.63176 0.200195ZM12.0583 13.0869C12.5171 13.0869 12.889 12.715 12.889 12.2562L12.8867 3.89488C12.8867 3.43612 12.5148 3.06424 12.056 3.06424H3.69545C3.47502 3.06424 3.26363 3.1519 3.10783 3.30784C2.95204 3.46378 2.86462 3.67522 2.86482 3.89566V12.2562C2.86482 12.715 3.23671 13.0869 3.69545 13.0869H12.0583Z" fill="white"/>
<path d="M6.20412 10.2103C5.94229 10.2082 5.73112 9.99536 5.73113 9.73346V6.39566C5.73052 6.26876 5.78049 6.1469 5.86998 6.05696C5.95947 5.96708 6.08112 5.9165 6.20796 5.9165H9.55038C9.67722 5.91674 9.79866 5.96732 9.88818 6.0572C9.97758 6.14708 10.0276 6.26882 10.0272 6.39566V9.73268C10.0276 9.85946 9.97758 9.98126 9.88818 10.0711C9.79866 10.161 9.67722 10.2117 9.55038 10.2118L6.20412 10.2103Z" fill="white"/>
<path d="M23.7653 7.37319C23.2777 7.24023 22.8162 7.11495 22.4578 6.95523C21.7945 6.65871 21.4858 6.24759 21.4858 5.66229C21.4858 4.55577 22.5556 4.05753 23.6209 4.05753C24.6333 4.05753 25.5175 4.47633 26.1112 5.23587L26.1517 5.28783L27.0076 4.61847L26.9663 4.56645C26.1769 3.56241 25.0078 3.01221 23.6728 3.01221C22.7841 3.01221 21.9695 3.25215 21.3803 3.68847C20.717 4.17369 20.3671 4.87749 20.3671 5.71731C20.3671 7.66977 22.2056 8.14575 23.6835 8.52861C25.1789 8.92293 26.0952 9.22245 26.0952 10.3626C26.0952 11.4851 25.1873 12.2103 23.7828 12.2103C23.0882 12.2103 21.8021 12.0262 20.9937 10.7913L20.9563 10.7332L20.0561 11.385L20.0912 11.4378C20.8553 12.5947 22.1743 13.2588 23.714 13.2588C25.8055 13.2588 27.2116 12.0781 27.2116 10.3221C27.2116 8.31237 25.2997 7.79193 23.7653 7.37319Z" fill="white"/>
<path fill-rule="evenodd" clip-rule="evenodd" d="M34.0339 6.96731V5.91047H35.0403V15.9484H34.0339V12.0267C33.4593 12.8146 32.5973 13.2456 31.5841 13.2456C29.6706 13.2456 28.3333 11.7134 28.3333 9.50123C28.3333 7.28897 29.6737 5.74463 31.5841 5.74463C32.5904 5.74463 33.4524 6.17789 34.0339 6.96731ZM29.394 9.48899C29.394 11.5369 30.5669 12.2667 31.665 12.2667L31.6673 12.2674C33.1047 12.2674 34.0339 11.1671 34.0339 9.48899C34.0339 7.81091 33.1032 6.72581 31.665 6.72581C29.9908 6.72581 29.394 8.15327 29.394 9.48899Z" fill="white"/>
<path d="M41.6939 5.91064V9.87274C41.6939 11.2598 40.744 12.2669 39.4357 12.2669C38.3491 12.2669 37.8203 11.6219 37.8203 10.2961V5.91064H36.814V10.5017C36.814 12.221 37.7485 13.2473 39.3134 13.2473C40.2886 13.2473 41.1261 12.8339 41.6946 12.0781V13.0838H42.701V5.91064H41.6939Z" fill="white"/>
<path fill-rule="evenodd" clip-rule="evenodd" d="M44.5961 6.66405C45.3381 6.08103 46.3453 5.74707 47.3578 5.74707C48.9572 5.74707 49.9115 6.54255 49.9085 7.87677V13.0853H48.9014V12.2898C48.3932 12.9263 47.6581 13.2488 46.7121 13.2488C45.1708 13.2488 44.2125 12.4059 44.2125 11.0503C44.2125 9.28737 45.8738 9.01077 46.5814 8.89305C46.6968 8.87403 46.816 8.85573 46.9351 8.83731L46.9396 8.83665C47.9064 8.68779 48.9044 8.53425 48.9044 7.71405C48.9044 6.78555 47.6993 6.71373 47.3303 6.71373C46.6784 6.71373 45.7576 6.90705 45.1318 7.44957L45.0745 7.49925L44.5487 6.70149L44.5961 6.66405ZM45.2632 10.9938C45.2632 12.1431 46.3453 12.2676 46.8107 12.2676H46.8114C47.8232 12.2676 48.906 11.7282 48.9037 10.2121V9.17427C48.4128 9.48435 47.7142 9.60549 47.0909 9.71349L47.0804 9.71535L46.7678 9.77115C45.7699 9.95607 45.2632 10.1944 45.2632 10.9938Z" fill="white"/>
<path d="M55.739 6.04591C55.4998 5.87551 55.1231 5.77393 54.7303 5.77393C53.9231 5.78449 53.168 6.17359 52.6907 6.82459V5.90761H51.6844V13.08H52.6907V9.24397C52.6907 7.54297 53.6468 6.78103 54.5935 6.78103C54.8706 6.77737 55.1449 6.83557 55.3967 6.95149L55.4647 6.98737L55.7833 6.07501L55.739 6.04591Z" fill="white"/>
<path fill-rule="evenodd" clip-rule="evenodd" d="M56.034 9.51663C56.034 7.29753 57.4178 5.74707 59.3963 5.74707C61.302 5.74707 62.634 7.12335 62.6304 9.09711C62.6298 9.26871 62.6202 9.44007 62.6022 9.61065L62.5956 9.66945H57.0938C57.119 11.249 58.0697 12.2676 59.5285 12.2676C60.3642 12.2676 61.089 11.9276 61.5678 11.3093L61.6116 11.2529L62.3406 11.9024L62.2998 11.9512C61.8156 12.5419 60.9324 13.2465 59.4727 13.2465C57.4171 13.2465 56.034 11.748 56.034 9.51663ZM59.3687 6.71295C58.1392 6.71295 57.2673 7.52217 57.1313 8.78235H61.5666C61.4796 7.76901 60.8604 6.71295 59.3687 6.71295Z" fill="white"/>
</svg>
