<?xml version="1.0" encoding="UTF-8"?>
<svg xmlns="http://www.w3.org/2000/svg" xmlns:xlink="http://www.w3.org/1999/xlink" width="32px" height="32px" viewBox="0 0 32 32" version="1.1">
<g id="surface1">
<path style=" stroke:none;fill-rule:nonzero;fill:rgb(13.72549%,15.294118%,18.823529%);fill-opacity:1;" d="M 12 12 L 12 20 L 16 20 C 18.121094 20 20.15625 20.84375 21.65625 22.34375 C 23.15625 23.84375 24 25.878906 24 28 L 24 32 L 8 32 C 5.878906 32 3.84375 31.15625 2.34375 29.65625 C 0.84375 28.15625 0 26.121094 0 24 L 0 8 C 0 5.878906 0.84375 3.84375 2.34375 2.34375 C 3.84375 0.84375 5.878906 0 8 0 L 24 0 C 26.121094 0 28.15625 0.84375 29.65625 2.34375 C 31.15625 3.84375 32 5.878906 32 8 L 32 12 Z M 12 12 "/>
</g>
</svg>
