<svg width="24" height="22" viewBox="0 0 24 22" fill="none" xmlns="http://www.w3.org/2000/svg">
<mask id="mask0_1_589" style="mask-type:alpha" maskUnits="userSpaceOnUse" x="0" y="0" width="24" height="22">
<path d="M21 13V17H0V11C0 9.9 0.9 9 2 9H3V11C3 12.1 3.9 13 5 13H21ZM0 20C0 21.1 0.9 22 2 22H19C20.1 22 21 21.1 21 20H0Z" fill="url(#paint0_linear_1_589)"/>
<path d="M9 6V7C9 7.55 8.55 8 8 8H6C5.45 8 5 7.55 5 7V6C5 5.45 5.45 5 6 5H8C8.55 5 9 5.45 9 6Z" fill="url(#paint1_linear_1_589)"/>
<path d="M22 0H5C3.9 0 3 0.9 3 2V11C3 12.1 3.9 13 5 13H22C23.1 13 24 12.1 24 11V2C24 0.9 23.1 0 22 0ZM9 7C9 7.55 8.55 8 8 8H6C5.45 8 5 7.55 5 7V6C5 5.45 5.45 5 6 5H8C8.55 5 9 5.45 9 6V7Z" fill="url(#paint2_linear_1_589)"/>
<path d="M21 17H0V20H21V17Z" fill="url(#paint3_linear_1_589)"/>
</mask>
<g mask="url(#mask0_1_589)">
<path d="M28 -5H-4V27H28V-5Z" fill="url(#paint4_linear_1_589)"/>
</g>
<defs>
<linearGradient id="paint0_linear_1_589" x1="8.213" y1="19.79" x2="19.984" y2="-2.288" gradientUnits="userSpaceOnUse">
<stop/>
<stop offset="1" stop-opacity="0"/>
</linearGradient>
<linearGradient id="paint1_linear_1_589" x1="6.234" y1="7.038" x2="13.684" y2="1.803" gradientUnits="userSpaceOnUse">
<stop/>
<stop offset="1" stop-opacity="0"/>
</linearGradient>
<linearGradient id="paint2_linear_1_589" x1="27.89" y1="-4.559" x2="4.935" y2="13.082" gradientUnits="userSpaceOnUse">
<stop/>
<stop offset="1" stop-opacity="0"/>
</linearGradient>
<linearGradient id="paint3_linear_1_589" x1="-2.608" y1="23.249" x2="22.472" y2="14.163" gradientUnits="userSpaceOnUse">
<stop/>
<stop offset="1" stop-opacity="0"/>
</linearGradient>
<linearGradient id="paint4_linear_1_589" x1="28" y1="-5" x2="-4" y2="27" gradientUnits="userSpaceOnUse">
<stop/>
<stop offset="1"/>
</linearGradient>
</defs>
</svg>
