<svg width="26" height="22" viewBox="0 0 26 22" fill="none" xmlns="http://www.w3.org/2000/svg">
<mask id="mask0_1_609" style="mask-type:alpha" maskUnits="userSpaceOnUse" x="0" y="0" width="26" height="22">
<path d="M16 9L8 17L3 19L5 14L10 9H0V22H26V9H16ZM24 16H16V14H24V16Z" fill="url(#paint0_linear_1_609)"/>
<path d="M8 17L3 19L5 14L8 17Z" fill="url(#paint1_linear_1_609)"/>
<path d="M20.5 4.50004L8 17L5 14L17.5 1.50004C17.9012 1.1187 18.4354 0.909181 18.9889 0.916186C19.5423 0.92319 20.0711 1.14616 20.4625 1.53754C20.8539 1.92891 21.0769 2.45772 21.0839 3.01116C21.0909 3.56461 20.8813 4.09889 20.5 4.50004Z" fill="url(#paint2_linear_1_609)"/>
<path d="M24 14H16V16H24V14Z" fill="url(#paint3_linear_1_609)"/>
</mask>
<g mask="url(#mask0_1_609)">
<path d="M29 -3H-3V29H29V-3Z" fill="url(#paint4_linear_1_609)"/>
</g>
<defs>
<linearGradient id="paint0_linear_1_609" x1="3.313" y1="5.813" x2="22.54" y2="25.04" gradientUnits="userSpaceOnUse">
<stop stop-opacity="0"/>
<stop offset="1"/>
</linearGradient>
<linearGradient id="paint1_linear_1_609" x1="3.83" y1="16.33" x2="6.531" y2="19.031" gradientUnits="userSpaceOnUse">
<stop stop-opacity="0"/>
<stop offset="1"/>
</linearGradient>
<linearGradient id="paint2_linear_1_609" x1="11.976" y1="6.97604" x2="14.748" y2="9.74804" gradientUnits="userSpaceOnUse">
<stop stop-opacity="0"/>
<stop offset="1"/>
</linearGradient>
<linearGradient id="paint3_linear_1_609" x1="14.156" y1="9.156" x2="24.602" y2="19.602" gradientUnits="userSpaceOnUse">
<stop stop-opacity="0"/>
<stop offset="1"/>
</linearGradient>
<linearGradient id="paint4_linear_1_609" x1="29" y1="-3" x2="-3" y2="29" gradientUnits="userSpaceOnUse">
<stop/>
<stop offset="1"/>
</linearGradient>
</defs>
</svg>
