<svg width="26" height="21" viewBox="0 0 26 21" fill="none" xmlns="http://www.w3.org/2000/svg">
<mask id="mask0_1_658" style="mask-type:alpha" maskUnits="userSpaceOnUse" x="0" y="0" width="26" height="21">
<path d="M12.51 3.1699C12.51 3.7299 11.16 4.1799 9.51001 4.1799C7.86001 4.1799 6.51001 3.7299 6.51001 3.1699C6.51001 2.6099 7.86001 2.1499 9.51001 2.1499C11.16 2.1499 12.51 2.6099 12.51 3.1699Z" fill="url(#paint0_linear_1_658)"/>
<path d="M19 2.52979V7.02979C16.16 7.18979 14 8.00979 14 8.99979V13.5198C12.94 13.1898 11.54 12.9998 10 12.9998C9.15001 12.9998 8.33001 13.0598 7.60001 13.1698V6.32979L19 2.52979Z" fill="url(#paint1_linear_1_658)"/>
<path d="M16 15V19C16 20.1 13.31 21 10 21C6.69 21 4 20.1 4 19V15C4 16.1 6.69 17 10 17C13.31 17 16 16.1 16 15Z" fill="url(#paint2_linear_1_658)"/>
<path d="M11.4 0L0 3.8L7.6 6.33L19 2.53L11.4 0ZM9.51 4.18C7.86 4.18 6.51 3.73 6.51 3.17C6.51 2.61 7.86 2.15 9.51 2.15C11.16 2.15 12.51 2.61 12.51 3.17C12.51 3.73 11.16 4.18 9.51 4.18Z" fill="url(#paint3_linear_1_658)"/>
<path d="M7.6 6.3298V13.1698C5.48 13.4798 4 14.1798 4 14.9998V15.0598L0 13.7298V3.7998L7.6 6.3298Z" fill="url(#paint4_linear_1_658)"/>
<path d="M10 17C13.314 17 16 16.105 16 15C16 13.895 13.314 13 10 13C6.686 13 4 13.895 4 15C4 16.105 6.686 17 10 17Z" fill="url(#paint5_linear_1_658)"/>
<path d="M20 11C23.314 11 26 10.105 26 9C26 7.895 23.314 7 20 7C16.686 7 14 7.895 14 9C14 10.105 16.686 11 20 11Z" fill="url(#paint6_linear_1_658)"/>
<path d="M26 9V16C26 17.1 23.31 18 20 18C18.46 18 17.06 17.81 16 17.48V15C16 14.41 15.23 13.88 14 13.52V9C14 10.1 16.69 11 20 11C23.31 11 26 10.1 26 9Z" fill="url(#paint7_linear_1_658)"/>
</mask>
<g mask="url(#mask0_1_658)">
<path d="M29 -6H-3V26H29V-6Z" fill="url(#paint8_linear_1_658)"/>
</g>
<defs>
<linearGradient id="paint0_linear_1_658" x1="6.37901" y1="1.7179" x2="17.077" y2="6.6719" gradientUnits="userSpaceOnUse">
<stop/>
<stop offset="1" stop-opacity="0"/>
</linearGradient>
<linearGradient id="paint1_linear_1_658" x1="38.198" y1="8.02479" x2="11.174" y2="8.02479" gradientUnits="userSpaceOnUse">
<stop stop-opacity="0"/>
<stop offset="1"/>
</linearGradient>
<linearGradient id="paint2_linear_1_658" x1="4" y1="18" x2="16" y2="18" gradientUnits="userSpaceOnUse">
<stop stop-opacity="0"/>
<stop offset="0.33"/>
<stop offset="0.66" stop-opacity="0"/>
<stop offset="1"/>
</linearGradient>
<linearGradient id="paint3_linear_1_658" x1="-0.322" y1="-0.67" x2="16.59" y2="5.934" gradientUnits="userSpaceOnUse">
<stop/>
<stop offset="1" stop-opacity="0"/>
</linearGradient>
<linearGradient id="paint4_linear_1_658" x1="-5.193" y1="12.7298" x2="7.76" y2="6.7868" gradientUnits="userSpaceOnUse">
<stop/>
<stop offset="1" stop-opacity="0"/>
</linearGradient>
<linearGradient id="paint5_linear_1_658" x1="19.265" y1="15" x2="-1.178" y2="15" gradientUnits="userSpaceOnUse">
<stop/>
<stop offset="0.5" stop-opacity="0"/>
<stop offset="1"/>
</linearGradient>
<linearGradient id="paint6_linear_1_658" x1="29.265" y1="9" x2="8.822" y2="9" gradientUnits="userSpaceOnUse">
<stop/>
<stop offset="0.5" stop-opacity="0"/>
<stop offset="1"/>
</linearGradient>
<linearGradient id="paint7_linear_1_658" x1="14" y1="13.5" x2="26" y2="13.5" gradientUnits="userSpaceOnUse">
<stop stop-opacity="0"/>
<stop offset="0.33"/>
<stop offset="0.66" stop-opacity="0"/>
<stop offset="1"/>
</linearGradient>
<linearGradient id="paint8_linear_1_658" x1="29" y1="-6" x2="-3" y2="26" gradientUnits="userSpaceOnUse">
<stop/>
<stop offset="1"/>
</linearGradient>
</defs>
</svg>
