<svg width="20" height="22" viewBox="0 0 20 22" fill="none" xmlns="http://www.w3.org/2000/svg">
<mask id="mask0_1_543" style="mask-type:alpha" maskUnits="userSpaceOnUse" x="0" y="0" width="20" height="22">
<path d="M20 0V4H3C1.34 4 0 3.107 0 2C0 0.893 1.34 0 3 0H20Z" fill="url(#paint0_linear_1_543)"/>
<path d="M15.5 17H7.5C7.36739 17 7.24021 16.9473 7.14645 16.8536C7.05268 16.7598 7 16.6326 7 16.5V15.5C7 15.3674 7.05268 15.2402 7.14645 15.1464C7.24021 15.0527 7.36739 15 7.5 15H15.5C15.6326 15 15.7598 15.0527 15.8536 15.1464C15.9473 15.2402 16 15.3674 16 15.5V16.5C16 16.6326 15.9473 16.7598 15.8536 16.8536C15.7598 16.9473 15.6326 17 15.5 17Z" fill="url(#paint1_linear_1_543)"/>
<path d="M15 13H8C7.73478 13 7.48043 12.8946 7.29289 12.7071C7.10536 12.5196 7 12.2652 7 12V9C7 8.73478 7.10536 8.48043 7.29289 8.29289C7.48043 8.10536 7.73478 8 8 8H15C15.2652 8 15.5196 8.10536 15.7071 8.29289C15.8946 8.48043 16 8.73478 16 9V12C16 12.2652 15.8946 12.5196 15.7071 12.7071C15.5196 12.8946 15.2652 13 15 13Z" fill="url(#paint2_linear_1_543)"/>
<path d="M3 4V22C1.34 22 0 21.11 0 20V2C0 3.11 1.34 4 3 4Z" fill="url(#paint3_linear_1_543)"/>
<path d="M3 4V22H20V4H3ZM16 16.5C16 16.78 15.78 17 15.5 17H7.5C7.22 17 7 16.78 7 16.5V15.5C7 15.22 7.22 15 7.5 15H15.5C15.78 15 16 15.22 16 15.5V16.5ZM16 12C16 12.55 15.55 13 15 13H8C7.45 13 7 12.55 7 12V9C7 8.45 7.45 8 8 8H15C15.55 8 16 8.45 16 9V12Z" fill="url(#paint4_linear_1_543)"/>
</mask>
<g mask="url(#mask0_1_543)">
<path d="M26 -5H-6V27H26V-5Z" fill="url(#paint5_linear_1_543)"/>
</g>
<defs>
<linearGradient id="paint0_linear_1_543" x1="10" y1="-7.968" x2="10" y2="4.526" gradientUnits="userSpaceOnUse">
<stop/>
<stop offset="1" stop-opacity="0"/>
</linearGradient>
<linearGradient id="paint1_linear_1_543" x1="6.621" y1="11.121" x2="14.041" y2="18.541" gradientUnits="userSpaceOnUse">
<stop stop-opacity="0"/>
<stop offset="0.5" stop-opacity="0.3"/>
<stop offset="1" stop-opacity="0"/>
</linearGradient>
<linearGradient id="paint2_linear_1_543" x1="9.371" y1="8.371" x2="16.791" y2="15.791" gradientUnits="userSpaceOnUse">
<stop stop-opacity="0"/>
<stop offset="0.5" stop-opacity="0.3"/>
<stop offset="1" stop-opacity="0"/>
</linearGradient>
<linearGradient id="paint3_linear_1_543" x1="-1.616" y1="12" x2="3.304" y2="12" gradientUnits="userSpaceOnUse">
<stop stop-opacity="0"/>
<stop offset="1"/>
</linearGradient>
<linearGradient id="paint4_linear_1_543" x1="0.0579998" y1="1.558" x2="17.27" y2="18.77" gradientUnits="userSpaceOnUse">
<stop stop-opacity="0"/>
<stop offset="1"/>
</linearGradient>
<linearGradient id="paint5_linear_1_543" x1="26" y1="-5" x2="-6" y2="27" gradientUnits="userSpaceOnUse">
<stop/>
<stop offset="1"/>
</linearGradient>
</defs>
</svg>
