<svg width="26" height="26" viewBox="0 0 26 26" fill="none" xmlns="http://www.w3.org/2000/svg">
<mask id="mask0_1_634" style="mask-type:alpha" maskUnits="userSpaceOnUse" x="0" y="0" width="26" height="26">
<path d="M26 15.9998C26 21.5198 21.52 25.9998 16 25.9998C11.67 25.9998 7.98 23.2498 6.6 19.3998C6.21 18.3398 6 17.1898 6 15.9998C6 15.0998 6.12 14.2398 6.34 13.4098C7.26 9.96984 9.97 7.25984 13.41 6.33984C14.0526 6.93972 14.5258 7.69825 14.7821 8.53912C15.0384 9.37999 15.0687 10.2735 14.87 11.1298C13.9603 11.3434 13.1282 11.8066 12.4675 12.4673C11.8067 13.1281 11.3435 13.9601 11.13 14.8698C10.9313 15.7262 10.9616 16.6197 11.2179 17.4606C11.4742 18.3014 11.9474 19.06 12.59 19.6598C13.5377 20.5466 14.7929 21.0303 16.0906 21.0088C17.3883 20.9872 18.6268 20.4621 19.5446 19.5444C20.4623 18.6267 20.9874 17.3882 21.0089 16.0905C21.0305 14.7928 20.5468 13.5375 19.66 12.5898C19.88 11.7598 20 10.8998 20 9.99984C20 8.80984 19.79 7.65984 19.4 6.59984C21.3342 7.29623 23.0063 8.57289 24.1876 10.2554C25.3689 11.9378 26.0019 13.9441 26 15.9998Z" fill="url(#paint0_linear_1_634)"/>
<path d="M20 10C20 10.9 19.88 11.76 19.66 12.59C18.74 16.03 16.03 18.74 12.59 19.66C11.9474 19.0601 11.4742 18.3016 11.2179 17.4607C10.9616 16.6198 10.9313 15.7263 11.13 14.87C12.0397 14.6565 12.8718 14.1933 13.5325 13.5325C14.1933 12.8718 14.6565 12.0397 14.87 11.13C15.0687 10.2737 15.0384 9.38015 14.7821 8.53928C14.5258 7.69841 14.0526 6.93988 13.41 6.34C12.4623 5.45323 11.2071 4.96953 9.90936 4.99106C8.61167 5.0126 7.37316 5.53769 6.45542 6.45543C5.53769 7.37316 5.0126 8.61167 4.99106 9.90937C4.96952 11.2071 5.45322 12.4623 6.34 13.41C6.12 14.24 6 15.1 6 16C6 17.19 6.21 18.34 6.6 19.4C4.66575 18.7036 2.99373 17.427 1.81241 15.7445C0.631097 14.062 -0.00187534 12.0558 -3.48971e-06 10C-3.48971e-06 4.48 4.48 0 10 0C14.33 0 18.02 2.75 19.4 6.6C19.79 7.66 20 8.81 20 10Z" fill="url(#paint1_linear_1_634)"/>
</mask>
<g mask="url(#mask0_1_634)">
<path d="M29 -3H-3V29H29V-3Z" fill="url(#paint2_linear_1_634)"/>
</g>
<defs>
<linearGradient id="paint0_linear_1_634" x1="28.718" y1="3.28184" x2="10.225" y2="21.7748" gradientUnits="userSpaceOnUse">
<stop stop-opacity="0"/>
<stop offset="1"/>
</linearGradient>
<linearGradient id="paint1_linear_1_634" x1="20.544" y1="-0.544" x2="-13.528" y2="33.528" gradientUnits="userSpaceOnUse">
<stop stop-opacity="0"/>
<stop offset="1"/>
</linearGradient>
<linearGradient id="paint2_linear_1_634" x1="29" y1="-3" x2="-3" y2="29" gradientUnits="userSpaceOnUse">
<stop/>
<stop offset="1"/>
</linearGradient>
</defs>
</svg>
