<svg width="24" height="22" viewBox="0 0 24 22" fill="none" xmlns="http://www.w3.org/2000/svg">
<mask id="mask0_1_502" style="mask-type:alpha" maskUnits="userSpaceOnUse" x="0" y="0" width="24" height="22">
<path d="M4 8C5.06087 8 6.07828 7.57857 6.82843 6.82843C7.57857 6.07828 8 5.06087 8 4C8 2.93913 7.57857 1.92172 6.82843 1.17157C6.07828 0.421427 5.06087 0 4 0C2.93913 0 1.92172 0.421427 1.17157 1.17157C0.421427 1.92172 0 2.93913 0 4C0 5.06087 0.421427 6.07828 1.17157 6.82843C1.92172 7.57857 2.93913 8 4 8Z" fill="url(#paint0_linear_1_502)"/>
<path d="M20 22C21.0609 22 22.0783 21.5786 22.8284 20.8284C23.5786 20.0783 24 19.0609 24 18C24 16.9391 23.5786 15.9217 22.8284 15.1716C22.0783 14.4214 21.0609 14 20 14C18.9391 14 17.9217 14.4214 17.1716 15.1716C16.4214 15.9217 16 16.9391 16 18C16 19.0609 16.4214 20.0783 17.1716 20.8284C17.9217 21.5786 18.9391 22 20 22Z" fill="url(#paint1_linear_1_502)"/>
<path d="M22 6V14.54C21.3925 14.1871 20.7026 14.0008 20 14C19.27 14 18.59 14.2 18 14.54V6C18 4.9 17.1 4 16 4C14.9 4 14 4.9 14 6V16C14 19.31 11.31 22 8 22C4.69 22 2 19.31 2 16V7.46C2.59 7.8 3.27 8 4 8C4.73 8 5.41 7.8 6 7.46V16C6 17.1 6.9 18 8 18C9.1 18 10 17.1 10 16V6C10 2.69 12.69 0 16 0C19.31 0 22 2.69 22 6Z" fill="url(#paint2_linear_1_502)"/>
</mask>
<g mask="url(#mask0_1_502)">
<path d="M28 -5H-4V27H28V-5Z" fill="url(#paint3_linear_1_502)"/>
</g>
<defs>
<linearGradient id="paint0_linear_1_502" x1="0.886" y1="0.886" x2="7.6" y2="7.6" gradientUnits="userSpaceOnUse">
<stop stop-opacity="0"/>
<stop offset="0.5"/>
<stop offset="1" stop-opacity="0"/>
</linearGradient>
<linearGradient id="paint1_linear_1_502" x1="16.886" y1="14.886" x2="23.6" y2="21.6" gradientUnits="userSpaceOnUse">
<stop stop-opacity="0"/>
<stop offset="0.5"/>
<stop offset="1" stop-opacity="0"/>
</linearGradient>
<linearGradient id="paint2_linear_1_502" x1="6.037" y1="5.037" x2="18.787" y2="17.787" gradientUnits="userSpaceOnUse">
<stop stop-opacity="0"/>
<stop offset="1"/>
</linearGradient>
<linearGradient id="paint3_linear_1_502" x1="28" y1="-5" x2="-4" y2="27" gradientUnits="userSpaceOnUse">
<stop/>
<stop offset="1"/>
</linearGradient>
</defs>
</svg>
