<svg width="12" height="16" viewBox="0 0 12 16" fill="none" xmlns="http://www.w3.org/2000/svg">
<mask id="mask0_1_3866" style="mask-type:alpha" maskUnits="userSpaceOnUse" x="0" y="0" width="12" height="16">
<path d="M11 0H3C1.34 0 0 1.34 0 3V13C0 14.66 1.34 16 3 16H11C11.55 16 12 15.55 12 15V1C12 0.45 11.55 0 11 0ZM11 15H3C1.9 15 1 14.1 1 13C1 11.9 1.9 11 3 11H11V15Z" fill="url(#paint0_linear_1_3866)"/>
</mask>
<g mask="url(#mask0_1_3866)">
<path d="M14 0H-2V16H14V0Z" fill="url(#paint1_linear_1_3866)"/>
</g>
<defs>
<linearGradient id="paint0_linear_1_3866" x1="10.654" y1="8" x2="-13.265" y2="8" gradientUnits="userSpaceOnUse">
<stop/>
<stop offset="1" stop-opacity="0"/>
</linearGradient>
<linearGradient id="paint1_linear_1_3866" x1="30" y1="0" x2="-2" y2="32" gradientUnits="userSpaceOnUse">
<stop/>
<stop offset="1"/>
</linearGradient>
</defs>
</svg>
