<svg width="16" height="16" viewBox="0 0 16 16" fill="none" xmlns="http://www.w3.org/2000/svg">
<path d="M13.6328 13.6328H11.2624V9.92083C11.2624 9.03523 11.2464 7.89523 10.0296 7.89523C8.7944 7.89523 8.6056 8.86003 8.6056 9.85524V13.6328H6.2352V5.99763H8.5112V7.04163H8.5432C8.77114 6.6525 9.10019 6.33235 9.49542 6.11516C9.89065 5.89796 10.3373 5.79183 10.788 5.80803C13.1912 5.80803 13.6344 7.38883 13.6344 9.44483L13.6328 13.6328ZM3.56 4.95443C2.8048 4.95443 2.184 4.33363 2.184 3.57843C2.184 2.82403 2.8048 2.20243 3.56 2.20243C4.3144 2.20243 4.936 2.82403 4.936 3.57843C4.936 4.33283 4.3144 4.95443 3.56 4.95443ZM4.7456 13.632H2.372V5.99763H4.7456V13.632ZM14.8152 0.000834493H1.1808C0.87167 -0.00131553 0.574192 0.118674 0.353067 0.334705C0.131941 0.550737 0.00505344 0.845338 0 1.15443L0 14.8456C0.008 15.4856 0.54 16.0072 1.1808 16H14.8152C15.1249 16.0024 15.423 15.8825 15.6449 15.6664C15.8667 15.4502 15.9943 15.1553 16 14.8456V1.15363C15.9943 0.844181 15.8668 0.549461 15.6451 0.333472C15.4234 0.117484 15.1255 -0.00233523 14.816 3.44924e-05V0.000834493H14.8152Z" fill="black"/>
</svg>
