<svg width="87" height="19" viewBox="0 0 87 19" fill="none" xmlns="http://www.w3.org/2000/svg">
<path d="M10.1139 14.3068C9.7985 14.8204 9.35262 15.2422 8.81975 15.5287C8.26074 15.8353 7.63108 15.9919 6.99275 15.9829C6.33069 15.9877 5.67998 15.8119 5.11137 15.4747C4.54121 15.1359 4.07784 14.6452 3.77375 14.0581C3.43981 13.4615 3.26363 12.7903 3.26173 12.1075C3.25983 11.4248 3.43226 10.7527 3.76287 10.1542C4.07445 9.57874 4.5318 9.09414 5.08962 8.74844C5.665 8.40839 6.32346 8.23254 6.99275 8.24018C7.58763 8.23162 8.17501 8.37299 8.70012 8.65111C9.2069 8.91064 9.64951 9.28048 9.99425 9.7325L10.0595 9.81901L12.4846 7.79681L12.4194 7.72112C11.7733 6.93668 10.9597 6.30502 10.0377 5.87194C9.08621 5.42406 8.04548 5.19491 6.99275 5.20148C5.75734 5.19398 4.54185 5.51106 3.46925 6.12066C2.41176 6.723 1.53658 7.59699 0.935373 8.65111C0.317303 9.70431 -0.00564698 10.903 0.000123365 12.1224C-0.00724759 13.342 0.315814 14.541 0.935373 15.5936C1.54616 16.632 2.41976 17.4933 3.46925 18.0916C4.54271 18.6979 5.75826 19.0113 6.99275 19C8.12658 19.0092 9.24585 18.7458 10.2552 18.2322C11.2436 17.7185 12.0938 16.9769 12.7347 16.0694L12.8 15.9829L10.1791 14.1554L10.1139 14.3068ZM24.3601 6.13147C23.2764 5.52017 22.0499 5.20316 20.804 5.21229C19.5686 5.20479 18.3531 5.52188 17.2805 6.13147C16.2214 6.73058 15.3428 7.60054 14.7357 8.65111C14.1158 9.70748 13.7928 10.9101 13.8005 12.1332C13.7931 13.3528 14.1162 14.5519 14.7357 15.6044C15.3507 16.6433 16.2279 17.5044 17.2805 18.1024C18.354 18.7087 19.5695 19.0221 20.804 19.0108C22.049 19.0232 23.2753 18.71 24.3601 18.1024C25.4182 17.5079 26.2998 16.6462 26.9157 15.6044C27.5356 14.5522 27.8586 13.353 27.851 12.1332C27.8587 10.9101 27.5357 9.70748 26.9157 8.65111C26.3079 7.59749 25.4248 6.7269 24.3601 6.13147ZM24.0556 14.0581C23.745 14.6293 23.2822 15.1044 22.718 15.4314C22.1377 15.7693 21.4764 15.9449 20.804 15.9397C20.1385 15.9448 19.4842 15.769 18.9117 15.4314C18.3484 15.107 17.8884 14.6312 17.585 14.0581C17.2552 13.451 17.0903 12.7689 17.1065 12.0791C17.0979 11.3923 17.2664 10.7147 17.5959 10.111C17.9084 9.53263 18.37 9.04741 18.9335 8.70518C19.5048 8.36497 20.1599 8.18903 20.8257 8.19693C21.495 8.18929 22.1535 8.36514 22.7289 8.70518C23.2868 9.05122 23.7446 9.53569 24.0556 10.111C24.3884 10.7139 24.5606 11.3914 24.5559 12.0791C24.5634 12.7706 24.3911 13.4523 24.0556 14.0581ZM45.2945 12.4576C45.3088 13.1283 45.1596 13.7925 44.8595 14.3933C44.5931 14.888 44.1941 15.2998 43.7067 15.5828C43.2268 15.8447 42.6882 15.9823 42.1407 15.9829C41.6247 15.9958 41.1145 15.8727 40.6617 15.6261C40.2472 15.3791 39.9086 15.0237 39.683 14.5987C39.4346 14.1098 39.3114 13.5675 39.3241 13.0199V5.5259H36.0616V13.6688C36.0449 14.6186 36.2733 15.5568 36.725 16.3939C37.153 17.192 37.7972 17.855 38.5846 18.3079C39.4272 18.7785 40.3806 19.0174 41.3469 19C42.3967 19.0111 43.4288 18.7301 44.3266 18.189C44.7284 17.936 45.0942 17.6305 45.4141 17.2806V18.6972H48.5352V5.5259H45.2728L45.2945 12.4576ZM69.0238 5.87194C68.2134 5.43261 67.304 5.2056 66.3811 5.21229C65.4166 5.20332 64.467 5.44964 63.6297 5.92601C62.9925 6.2753 62.4335 6.75003 61.9876 7.321C61.6069 6.7261 61.0934 6.22653 60.4869 5.86113C59.7852 5.42861 58.9743 5.20357 58.1488 5.21229C57.2652 5.20619 56.3993 5.45811 55.6584 5.93682C55.2451 6.2169 54.8775 6.5597 54.5709 6.95333V5.5259H51.5911V18.6972H54.8536V10.9869C54.8515 10.4983 54.9671 10.0162 55.1908 9.5811C55.4061 9.17775 55.7258 8.83819 56.1151 8.59704C56.4966 8.36053 56.9379 8.23676 57.3875 8.24018C57.866 8.23694 58.3325 8.38076 58.7251 8.65111C59.109 8.89658 59.4233 9.23506 59.6386 9.63517C59.8626 10.0699 59.9779 10.5522 59.9757 11.041V18.7513H63.2383V11.041C63.2346 10.5509 63.3543 10.0676 63.5863 9.63517C63.8052 9.23432 64.1233 8.89562 64.5106 8.65111C64.8942 8.41033 65.3403 8.28629 65.7939 8.29425C66.2539 8.28941 66.706 8.41305 67.0989 8.65111C67.4849 8.8901 67.797 9.23073 68.0015 9.63517C68.2212 10.071 68.3332 10.5533 68.3278 11.041V18.7513H71.5902V10.2191C71.6011 9.33769 71.3597 8.47135 70.8942 7.72112C70.4475 6.95008 69.8017 6.31169 69.0238 5.87194ZM86.3367 7.85088C85.9045 7.04586 85.2523 6.37862 84.4554 5.92601C83.6242 5.44456 82.6767 5.19779 81.7149 5.21229C80.6517 5.20046 79.607 5.48923 78.7025 6.04496C78.3056 6.29152 77.9413 6.58566 77.615 6.92089V5.5259H74.4613V18.6972H77.7237V11.7655C77.7061 11.1026 77.8517 10.4455 78.1479 9.85145C78.431 9.337 78.8629 8.91886 79.3876 8.65111C79.8681 8.37956 80.4118 8.23788 80.9645 8.24018C81.4756 8.22937 81.9791 8.35589 82.4217 8.60785C82.8524 8.86631 83.1993 9.24155 83.4222 9.68924C83.6688 10.1672 83.7921 10.6986 83.7811 11.2356V18.7405H87.0436V10.6192C87.0545 9.65098 86.8109 8.69669 86.3367 7.85088ZM28.3404 0V2.16278H28.895C29.1834 2.16278 29.46 2.27671 29.664 2.47951C29.8679 2.68231 29.9825 2.95736 29.9825 3.24417V18.654H33.245V0H28.3404Z" fill="black"/>
</svg>
