<svg width="16" height="14" viewBox="0 0 16 14" fill="none" xmlns="http://www.w3.org/2000/svg">
<path d="M16 2.13923C15.4008 2.40469 14.7652 2.57889 14.1144 2.65603C14.8002 2.24599 15.3134 1.60054 15.5584 0.840026C14.914 1.22256 14.2089 1.49205 13.4736 1.63683C12.9796 1.10786 12.3247 0.75699 11.6106 0.638796C10.8966 0.520603 10.1635 0.641716 9.52546 0.983294C8.88738 1.32487 8.38009 1.86776 8.08251 2.5275C7.78492 3.18724 7.71373 3.92684 7.88 4.63123C6.5746 4.56578 5.29756 4.22648 4.13184 3.63534C2.96611 3.04421 1.93777 2.21447 1.1136 1.20003C0.821785 1.70102 0.668542 2.27064 0.6696 2.85043C0.669062 3.39084 0.802061 3.92301 1.05677 4.39964C1.31148 4.87626 1.68001 5.28256 2.1296 5.58243C1.6085 5.56609 1.09886 5.42538 0.6432 5.17203V5.21363C0.643403 5.97134 0.905551 6.70568 1.38523 7.29222C1.8649 7.87877 2.5326 8.28144 3.2752 8.43203C2.79205 8.56331 2.28528 8.58246 1.7936 8.48803C2.00318 9.14034 2.41144 9.71082 2.96127 10.1196C3.51109 10.5285 4.17497 10.7552 4.86 10.768C3.69722 11.6805 2.26128 12.1753 0.7832 12.1728C0.521476 12.1726 0.259979 12.1574 0 12.1272C1.50099 13.0916 3.2479 13.6035 5.032 13.6016C11.0696 13.6016 14.372 8.60003 14.372 4.26243C14.372 4.12003 14.368 3.97843 14.3624 3.83763C15.0049 3.37332 15.5594 2.79819 16 2.13923Z" fill="black"/>
</svg>
