<svg width="74" height="20" viewBox="0 0 74 20" fill="none" xmlns="http://www.w3.org/2000/svg">
<path d="M46.6651 5.77483C47.601 4.80883 48.6102 4.34473 49.919 4.34473C50.4074 4.34473 51.0579 4.40913 51.8063 4.53723L49.8866 7.04323C49.6723 7.00152 49.4544 6.98042 49.2361 6.98023C47.804 6.98023 46.8603 7.97563 46.8603 9.54993V16.4267H44.0941V4.57013H46.6651V5.77483ZM70.5833 4.57013H73.7723L69.2428 10.553L73.7723 16.426H70.4853L67.6219 12.6747L64.7584 16.426H61.5046L66.0038 10.5432L61.5046 4.56873H64.6936L67.6381 8.43623L70.5833 4.56943V4.57013Z" fill="black"/>
<path fill-rule="evenodd" clip-rule="evenodd" d="M15.4618 2.20205L15.6859 1.90315C16.0456 1.4259 16.5119 1.03813 17.0482 0.770402C17.5845 0.502675 18.1761 0.362305 18.7763 0.360352H24.1466V16.4268H10.5108C9.70034 16.4268 9.49032 16.711 8.82926 17.6042C8.72002 17.7512 8.5988 17.9157 8.46067 18.097C7.71221 19.0609 6.54089 19.6391 5.33716 19.6391H0V3.57405H13.6026C14.437 3.57405 14.6985 3.22405 15.4618 2.20205ZM14.2214 12.2821H19.9159V4.56945H15.1312C14.2912 4.56945 14.0163 4.92225 13.1389 6.04995L13.0162 6.20815C12.2678 7.17205 11.1282 7.75025 9.89204 7.75025H4.19756V15.4622H9.0132C9.83848 15.4622 10.0767 15.1458 10.8399 14.1301L11.0965 13.7906C11.8449 12.7945 12.9831 12.2807 14.22 12.2807L14.2214 12.2821ZM42.402 4.89145C42.402 6.46505 41.5563 7.65435 40.3518 8.32915C42.1095 9.16425 42.7924 10.4502 42.7924 11.9279C42.7924 14.4339 40.8402 16.4268 38.0092 16.4268H30.199V0.360352H38.0092C40.6126 0.360352 42.402 2.57795 42.402 4.89145ZM37.7816 2.86705H32.9652V7.04395H37.6188C38.6273 7.04395 39.7014 6.20885 39.7014 4.98735C39.7014 3.99195 38.9853 2.86635 37.7816 2.86635V2.86705ZM32.9652 13.9201H37.6188C38.7577 13.9201 40.0269 12.924 40.0269 11.7032C40.0269 10.6105 39.0177 9.54995 37.7809 9.54995H32.9652V13.9201ZM56.4275 14.1448C57.4043 14.1448 58.2831 13.7276 58.7384 13.0199H61.6998C61.0817 15.4629 58.9336 16.6515 56.493 16.6515C53.0108 16.6515 50.7654 14.2414 50.7654 10.5139C50.7654 6.69045 53.108 4.34475 56.4282 4.34475C59.8117 4.34475 62.0578 6.81925 62.0578 10.4173C62.0578 10.8359 62.0254 11.0606 61.895 11.5422H53.6296C53.6296 13.1172 54.8988 14.1448 56.4275 14.1448ZM59.0964 9.26085C59.1288 7.81465 57.9575 6.85075 56.4275 6.85075C54.8988 6.85075 53.6613 7.84755 53.6613 9.26085H59.0964Z" fill="black"/>
</svg>
