<svg width="508" height="485" viewBox="0 0 508 485" fill="none" xmlns="http://www.w3.org/2000/svg">
<g clip-path="url(#clip0_17_2)">
<path fill-rule="evenodd" clip-rule="evenodd" d="M358 353.819C440.843 353.819 508 310.207 508 256.409V295.373C508 349.171 440.843 392.782 358 392.782C275.157 392.782 208 349.171 208 295.373V256.409C208 310.207 275.157 353.819 358 353.819Z" fill="#383E4F"/>
<path opacity="0.3" fill-rule="evenodd" clip-rule="evenodd" d="M358 392.782C440.843 392.782 508 349.171 508 295.373V296.591C508 350.389 440.843 394 358 394C275.157 394 208 350.389 208 296.591V295.373C208 349.171 275.157 392.782 358 392.782ZM208.104 291.72C208.035 292.937 208 294.155 208 295.373V291.72H208.104ZM507.896 291.72H508V295.373C508 294.155 507.966 292.937 507.896 291.72Z" fill="#232730"/>
<path fill-rule="evenodd" clip-rule="evenodd" d="M358 353.819C440.843 353.819 508 310.207 508 256.409V257.627C508 311.425 440.843 355.036 358 355.036C275.157 355.036 208 311.425 208 257.627V256.409C208 310.207 275.157 353.819 358 353.819ZM208.104 252.756C208.035 253.973 208 255.191 208 256.409V252.756H208.104ZM507.896 252.756H508V256.409C508 255.187 507.966 253.969 507.896 252.756Z" fill="white" fill-opacity="0.2"/>
<path opacity="0.28" fill-rule="evenodd" clip-rule="evenodd" d="M358 353.819C440.843 353.819 508 310.207 508 256.409V295.373C508 349.171 440.843 392.782 358 392.782C275.157 392.782 208 349.171 208 295.373V256.409C208 310.207 275.157 353.819 358 353.819Z" fill="url(#paint0_linear_17_2)"/>
<g filter="url(#filter0_d_17_2)">
<path d="M508 256.409C508 310.207 440.843 353.819 358 353.819C275.157 353.819 208 310.207 208 256.409C208 202.611 275.157 159 358 159C440.843 159 508 202.611 508 256.409Z" fill="#383E4F"/>
</g>
</g>
<rect x="0.5" y="107.48" width="166" height="1" fill="black" fill-opacity="0.2"/>
<g clip-path="url(#clip1_17_2)">
<path fill-rule="evenodd" clip-rule="evenodd" d="M208.026 98.9489H208V117.273C208 171.246 275.157 215 358 215C440.843 215 508 171.246 508 117.273V98.9489H507.974C506.465 151.739 439.898 194.233 358 194.233C276.102 194.233 209.535 151.739 208.026 98.9489Z" fill="url(#paint1_linear_17_2)"/>
<path fill-rule="evenodd" clip-rule="evenodd" d="M208.012 98.9489H208C208 152.922 275.157 196.676 358 196.676C440.843 196.676 508 152.922 508 98.9489H507.989C506.984 152.359 440.217 195.455 358 195.455C275.783 195.455 209.016 152.359 208.012 98.9489Z" fill="white" fill-opacity="0.8"/>
<path fill-rule="evenodd" clip-rule="evenodd" d="M358 195.455C440.843 195.455 508 151.701 508 97.7273V117.273C508 171.246 440.843 215 358 215C275.157 215 208 171.246 208 117.273V97.7273C208 151.701 275.157 195.455 358 195.455ZM208.104 94.0625C208.035 95.2829 208 96.5049 208 97.7273V94.0625H208.104ZM507.896 94.0625H508V97.7273C508 96.5008 507.966 95.2792 507.896 94.0625Z" fill="url(#paint2_linear_17_2)"/>
<path d="M508 97.7273C508 151.701 440.843 195.455 358 195.455C275.157 195.455 208 151.701 208 97.7273C208 43.7537 275.157 0 358 0C440.843 0 508 43.7537 508 97.7273Z" fill="url(#paint3_linear_17_2)"/>
</g>
<rect x="0.5" y="197.794" width="166" height="1" fill="black" fill-opacity="0.2"/>
<g clip-path="url(#clip2_17_2)">
<path fill-rule="evenodd" clip-rule="evenodd" d="M358 274.819C440.843 274.819 508 231.207 508 177.409V216.373C508 270.171 440.843 313.782 358 313.782C275.157 313.782 208 270.171 208 216.373V177.409C208 231.207 275.157 274.819 358 274.819Z" fill="#383E4F"/>
<path opacity="0.3" fill-rule="evenodd" clip-rule="evenodd" d="M358 313.782C440.843 313.782 508 270.171 508 216.373V217.591C508 271.389 440.843 315 358 315C275.157 315 208 271.389 208 217.591V216.373C208 270.171 275.157 313.782 358 313.782ZM208.104 212.72C208.035 213.937 208 215.155 208 216.373V212.72H208.104ZM507.896 212.72H508V216.373C508 215.155 507.966 213.937 507.896 212.72Z" fill="#232730"/>
<path fill-rule="evenodd" clip-rule="evenodd" d="M358 274.819C440.843 274.819 508 231.207 508 177.409V178.627C508 232.425 440.843 276.036 358 276.036C275.157 276.036 208 232.425 208 178.627V177.409C208 231.207 275.157 274.819 358 274.819ZM208.104 173.756C208.035 174.973 208 176.191 208 177.409V173.756H208.104ZM507.896 173.756H508V177.409C508 176.187 507.966 174.969 507.896 173.756Z" fill="white" fill-opacity="0.2"/>
<path opacity="0.28" fill-rule="evenodd" clip-rule="evenodd" d="M358 274.819C440.843 274.819 508 231.207 508 177.409V216.373C508 270.171 440.843 313.782 358 313.782C275.157 313.782 208 270.171 208 216.373V177.409C208 231.207 275.157 274.819 358 274.819Z" fill="url(#paint4_linear_17_2)"/>
<g filter="url(#filter1_d_17_2)">
<path d="M508 177.409C508 231.207 440.843 274.819 358 274.819C275.157 274.819 208 231.207 208 177.409C208 123.611 275.157 80 358 80C440.843 80 508 123.611 508 177.409Z" fill="#383E4F"/>
</g>
</g>
<rect x="0.5" y="237.434" width="166" height="1" fill="black" fill-opacity="0.2"/>
<g clip-path="url(#clip3_17_2)">
<path fill-rule="evenodd" clip-rule="evenodd" d="M358 314.819C440.843 314.819 508 271.207 508 217.409V256.373C508 310.171 440.843 353.782 358 353.782C275.157 353.782 208 310.171 208 256.373V217.409C208 271.207 275.157 314.819 358 314.819Z" fill="#383E4F"/>
<path opacity="0.3" fill-rule="evenodd" clip-rule="evenodd" d="M358 353.782C440.843 353.782 508 310.171 508 256.373V257.591C508 311.389 440.843 355 358 355C275.157 355 208 311.389 208 257.591V256.373C208 310.171 275.157 353.782 358 353.782ZM208.104 252.72C208.035 253.937 208 255.155 208 256.373V252.72H208.104ZM507.896 252.72H508V256.373C508 255.155 507.966 253.937 507.896 252.72Z" fill="#232730"/>
<path fill-rule="evenodd" clip-rule="evenodd" d="M358 314.819C440.843 314.819 508 271.207 508 217.409V218.627C508 272.425 440.843 316.036 358 316.036C275.157 316.036 208 272.425 208 218.627V217.409C208 271.207 275.157 314.819 358 314.819ZM208.104 213.756C208.035 214.973 208 216.191 208 217.409V213.756H208.104ZM507.896 213.756H508V217.409C508 216.187 507.966 214.969 507.896 213.756Z" fill="white" fill-opacity="0.2"/>
<path opacity="0.28" fill-rule="evenodd" clip-rule="evenodd" d="M358 314.819C440.843 314.819 508 271.207 508 217.409V256.373C508 310.171 440.843 353.782 358 353.782C275.157 353.782 208 310.171 208 256.373V217.409C208 271.207 275.157 314.819 358 314.819Z" fill="url(#paint5_linear_17_2)"/>
<g filter="url(#filter2_d_17_2)">
<path d="M508 217.409C508 271.207 440.843 314.819 358 314.819C275.157 314.819 208 271.207 208 217.409C208 163.611 275.157 120 358 120C440.843 120 508 163.611 508 217.409Z" fill="#383E4F"/>
</g>
</g>
<rect x="0.5" y="277.075" width="166" height="1" fill="black" fill-opacity="0.2"/>
<g clip-path="url(#clip4_17_2)">
<path fill-rule="evenodd" clip-rule="evenodd" d="M358 362.19C440.843 362.19 508 318.272 508 264.095V273.905C508 328.082 440.843 372 358 372C275.157 372 208 328.082 208 273.905V264.095C208 318.272 275.157 362.19 358 362.19Z" fill="#4575CD"/>
<path fill-rule="evenodd" clip-rule="evenodd" d="M358 362.19C440.843 362.19 508 318.272 508 264.095V265.321C508 319.498 440.843 363.417 358 363.417C275.157 363.417 208 319.498 208 265.321V264.095C208 318.272 275.157 362.19 358 362.19ZM208.104 260.417C208.035 261.642 208 262.868 208 264.095V260.417H208.104ZM507.896 260.417H508V264.095C508 262.864 507.966 261.638 507.896 260.417Z" fill="white" fill-opacity="0.3"/>
<path opacity="0.28" fill-rule="evenodd" clip-rule="evenodd" d="M358 362.19C440.843 362.19 508 318.272 508 264.095V273.905C508 328.082 440.843 372 358 372C275.157 372 208 328.082 208 273.905V264.095C208 318.272 275.157 362.19 358 362.19Z" fill="url(#paint6_linear_17_2)"/>
<path d="M508 264.095C508 318.272 440.843 362.19 358 362.19C275.157 362.19 208 318.272 208 264.095C208 209.918 275.157 166 358 166C440.843 166 508 209.918 508 264.095Z" fill="#4575CD"/>
</g>
<rect x="0.5" y="376.219" width="166" height="1" fill="black" fill-opacity="0.2"/>
<g clip-path="url(#clip5_17_2)">
<path fill-rule="evenodd" clip-rule="evenodd" d="M358 465.364C440.843 465.364 508 421.406 508 367.182V386.818C508 441.043 440.843 485 358 485C275.157 485 208 441.043 208 386.818V367.182C208 421.406 275.157 465.364 358 465.364Z" fill="#12161E"/>
<path fill-rule="evenodd" clip-rule="evenodd" d="M358 465.364C440.843 465.364 508 421.406 508 367.182V368.409C508 422.634 440.843 466.591 358 466.591C275.157 466.591 208 422.634 208 368.409V367.182C208 421.406 275.157 465.364 358 465.364ZM208.104 363.5C208.035 364.726 208 365.954 208 367.182V363.5H208.104ZM507.896 363.5H508V367.182C508 365.95 507.966 364.722 507.896 363.5Z" fill="white" fill-opacity="0.2"/>
<path fill-rule="evenodd" clip-rule="evenodd" d="M358 465.364C440.843 465.364 508 421.406 508 367.182V368.409C508 422.634 440.843 466.591 358 466.591C275.157 466.591 208 422.634 208 368.409V367.182C208 421.406 275.157 465.364 358 465.364ZM208.104 363.5C208.035 364.726 208 365.954 208 367.182V363.5H208.104ZM507.896 363.5H508V367.182C508 365.95 507.966 364.722 507.896 363.5Z" fill="url(#paint7_linear_17_2)" fill-opacity="0.2"/>
<path opacity="0.3" fill-rule="evenodd" clip-rule="evenodd" d="M358 465.364C440.843 465.364 508 421.406 508 367.182V386.818C508 441.043 440.843 485 358 485C275.157 485 208 441.043 208 386.818V367.182C208 421.406 275.157 465.364 358 465.364Z" fill="url(#paint8_linear_17_2)"/>
<g filter="url(#filter3_d_17_2)">
<path d="M508 367.182C508 421.406 440.843 465.364 358 465.364C275.157 465.364 208 421.406 208 367.182C208 312.957 275.157 269 358 269C440.843 269 508 312.957 508 367.182Z" fill="#12161E"/>
</g>
</g>
<path d="M2.57227 206.047H3.85059L7.11133 214.161L10.3652 206.047H11.6504L7.60352 216H6.60547L2.57227 206.047ZM2.15527 206.047H3.2832L3.46777 212.117V216H2.15527V206.047ZM10.9326 206.047H12.0605V216H10.748V212.117L10.9326 206.047ZM15.5605 208.604V216H14.2891V208.604H15.5605ZM14.1934 206.642C14.1934 206.437 14.2549 206.263 14.3779 206.122C14.5055 205.981 14.6924 205.91 14.9385 205.91C15.18 205.91 15.3646 205.981 15.4922 206.122C15.6243 206.263 15.6904 206.437 15.6904 206.642C15.6904 206.838 15.6243 207.006 15.4922 207.147C15.3646 207.284 15.18 207.353 14.9385 207.353C14.6924 207.353 14.5055 207.284 14.3779 207.147C14.2549 207.006 14.1934 206.838 14.1934 206.642ZM22.2529 214.564V205.5H23.5244V216H22.3623L22.2529 214.564ZM17.2764 212.384V212.24C17.2764 211.675 17.3447 211.162 17.4814 210.702C17.6227 210.237 17.821 209.839 18.0762 209.506C18.3359 209.173 18.6436 208.918 18.999 208.74C19.359 208.558 19.7601 208.467 20.2021 208.467C20.667 208.467 21.0726 208.549 21.4189 208.713C21.7699 208.872 22.0661 209.107 22.3076 209.417C22.5537 209.722 22.7474 210.091 22.8887 210.524C23.0299 210.957 23.1279 211.447 23.1826 211.994V212.623C23.1325 213.165 23.0345 213.653 22.8887 214.086C22.7474 214.519 22.5537 214.888 22.3076 215.193C22.0661 215.499 21.7699 215.733 21.4189 215.897C21.068 216.057 20.6579 216.137 20.1885 216.137C19.7555 216.137 19.359 216.043 18.999 215.856C18.6436 215.67 18.3359 215.408 18.0762 215.07C17.821 214.733 17.6227 214.337 17.4814 213.881C17.3447 213.421 17.2764 212.922 17.2764 212.384ZM18.5479 212.24V212.384C18.5479 212.753 18.5843 213.099 18.6572 213.423C18.7347 213.746 18.8532 214.031 19.0127 214.277C19.1722 214.523 19.375 214.717 19.6211 214.858C19.8672 214.995 20.1611 215.063 20.5029 215.063C20.9222 215.063 21.2663 214.975 21.5352 214.797C21.8086 214.619 22.0273 214.384 22.1914 214.093C22.3555 213.801 22.4831 213.484 22.5742 213.143V211.495C22.5195 211.244 22.4398 211.003 22.335 210.771C22.2347 210.534 22.1025 210.324 21.9385 210.142C21.779 209.955 21.5807 209.807 21.3438 209.697C21.1113 209.588 20.8356 209.533 20.5166 209.533C20.1702 209.533 19.8717 209.606 19.6211 209.752C19.375 209.893 19.1722 210.089 19.0127 210.34C18.8532 210.586 18.7347 210.873 18.6572 211.201C18.5843 211.525 18.5479 211.871 18.5479 212.24ZM30.1553 214.564V205.5H31.4268V216H30.2646L30.1553 214.564ZM25.1787 212.384V212.24C25.1787 211.675 25.2471 211.162 25.3838 210.702C25.5251 210.237 25.7233 209.839 25.9785 209.506C26.2383 209.173 26.5459 208.918 26.9014 208.74C27.2614 208.558 27.6624 208.467 28.1045 208.467C28.5693 208.467 28.9749 208.549 29.3213 208.713C29.6722 208.872 29.9684 209.107 30.21 209.417C30.4561 209.722 30.6497 210.091 30.791 210.524C30.9323 210.957 31.0303 211.447 31.085 211.994V212.623C31.0348 213.165 30.9368 213.653 30.791 214.086C30.6497 214.519 30.4561 214.888 30.21 215.193C29.9684 215.499 29.6722 215.733 29.3213 215.897C28.9704 216.057 28.5602 216.137 28.0908 216.137C27.6579 216.137 27.2614 216.043 26.9014 215.856C26.5459 215.67 26.2383 215.408 25.9785 215.07C25.7233 214.733 25.5251 214.337 25.3838 213.881C25.2471 213.421 25.1787 212.922 25.1787 212.384ZM26.4502 212.24V212.384C26.4502 212.753 26.4867 213.099 26.5596 213.423C26.637 213.746 26.7555 214.031 26.915 214.277C27.0745 214.523 27.2773 214.717 27.5234 214.858C27.7695 214.995 28.0635 215.063 28.4053 215.063C28.8245 215.063 29.1686 214.975 29.4375 214.797C29.7109 214.619 29.9297 214.384 30.0938 214.093C30.2578 213.801 30.3854 213.484 30.4766 213.143V211.495C30.4219 211.244 30.3421 211.003 30.2373 210.771C30.137 210.534 30.0049 210.324 29.8408 210.142C29.6813 209.955 29.4831 209.807 29.2461 209.697C29.0137 209.588 28.738 209.533 28.4189 209.533C28.0726 209.533 27.7741 209.606 27.5234 209.752C27.2773 209.893 27.0745 210.089 26.915 210.34C26.7555 210.586 26.637 210.873 26.5596 211.201C26.4867 211.525 26.4502 211.871 26.4502 212.24ZM34.7695 205.5V216H33.498V205.5H34.7695ZM39.8691 216.137C39.3542 216.137 38.887 216.05 38.4678 215.877C38.0531 215.699 37.6953 215.451 37.3945 215.132C37.0983 214.813 36.8704 214.435 36.7109 213.997C36.5514 213.56 36.4717 213.081 36.4717 212.562V212.274C36.4717 211.673 36.5605 211.137 36.7383 210.668C36.916 210.194 37.1576 209.793 37.4629 209.465C37.7682 209.137 38.1146 208.888 38.502 208.72C38.8893 208.551 39.2904 208.467 39.7051 208.467C40.2337 208.467 40.6895 208.558 41.0723 208.74C41.4596 208.923 41.7764 209.178 42.0225 209.506C42.2686 209.829 42.4508 210.212 42.5693 210.654C42.6878 211.092 42.7471 211.57 42.7471 212.09V212.657H37.2236V211.625H41.4824V211.529C41.4642 211.201 41.3958 210.882 41.2773 210.572C41.1634 210.262 40.9811 210.007 40.7305 209.807C40.4798 209.606 40.138 209.506 39.7051 209.506C39.418 209.506 39.1536 209.567 38.9121 209.69C38.6706 209.809 38.4632 209.987 38.29 210.224C38.1169 210.461 37.9824 210.75 37.8867 211.092C37.791 211.434 37.7432 211.828 37.7432 212.274V212.562C37.7432 212.912 37.791 213.243 37.8867 213.553C37.987 213.858 38.1305 214.127 38.3174 214.359C38.5088 214.592 38.7389 214.774 39.0078 214.906C39.2812 215.038 39.5911 215.104 39.9375 215.104C40.3841 215.104 40.7624 215.013 41.0723 214.831C41.3822 214.649 41.6533 214.405 41.8857 214.1L42.6514 214.708C42.4919 214.95 42.2891 215.18 42.043 215.398C41.7969 215.617 41.4938 215.795 41.1338 215.932C40.7783 216.068 40.3568 216.137 39.8691 216.137ZM46.0967 214.688L47.9971 208.604H48.8311L48.667 209.813L46.7324 216H45.9189L46.0967 214.688ZM44.8184 208.604L46.4385 214.756L46.5547 216H45.7002L43.5537 208.604H44.8184ZM50.6494 214.708L52.1943 208.604H53.4521L51.3057 216H50.458L50.6494 214.708ZM49.0156 208.604L50.875 214.585L51.0869 216H50.2803L48.291 209.8L48.127 208.604H49.0156ZM59.1123 214.735V210.928C59.1123 210.636 59.0531 210.383 58.9346 210.169C58.8206 209.95 58.6475 209.782 58.415 209.663C58.1826 209.545 57.8955 209.485 57.5537 209.485C57.2347 209.485 56.9544 209.54 56.7129 209.649C56.4759 209.759 56.2891 209.902 56.1523 210.08C56.0202 210.258 55.9541 210.449 55.9541 210.654H54.6895C54.6895 210.39 54.7578 210.128 54.8945 209.868C55.0312 209.608 55.2272 209.374 55.4824 209.164C55.7422 208.95 56.0521 208.781 56.4121 208.658C56.7767 208.531 57.1823 208.467 57.6289 208.467C58.1667 208.467 58.6406 208.558 59.0508 208.74C59.4655 208.923 59.7891 209.198 60.0215 209.567C60.2585 209.932 60.377 210.39 60.377 210.941V214.387C60.377 214.633 60.3975 214.895 60.4385 215.173C60.484 215.451 60.5501 215.69 60.6367 215.891V216H59.3174C59.2536 215.854 59.2035 215.66 59.167 215.419C59.1305 215.173 59.1123 214.945 59.1123 214.735ZM59.3311 211.516L59.3447 212.404H58.0664C57.7064 212.404 57.3851 212.434 57.1025 212.493C56.82 212.548 56.583 212.632 56.3916 212.746C56.2002 212.86 56.0544 213.004 55.9541 213.177C55.8538 213.345 55.8037 213.544 55.8037 213.771C55.8037 214.004 55.8561 214.216 55.9609 214.407C56.0658 214.599 56.223 214.751 56.4326 214.865C56.6468 214.975 56.9089 215.029 57.2188 215.029C57.6061 215.029 57.9479 214.947 58.2441 214.783C58.5404 214.619 58.7751 214.419 58.9482 214.182C59.126 213.945 59.2217 213.715 59.2354 213.491L59.7754 214.1C59.7435 214.291 59.6569 214.503 59.5156 214.735C59.3743 214.968 59.1852 215.191 58.9482 215.405C58.7158 215.615 58.4378 215.79 58.1143 215.932C57.7952 216.068 57.4352 216.137 57.0342 216.137C56.5329 216.137 56.0931 216.039 55.7148 215.843C55.3411 215.647 55.0495 215.385 54.8398 215.057C54.6348 214.724 54.5322 214.353 54.5322 213.942C54.5322 213.546 54.6097 213.197 54.7646 212.896C54.9196 212.591 55.1429 212.338 55.4346 212.138C55.7262 211.933 56.0771 211.778 56.4873 211.673C56.8975 211.568 57.3555 211.516 57.8613 211.516H59.3311ZM63.6309 209.766V216H62.3662V208.604H63.5967L63.6309 209.766ZM65.9414 208.562L65.9346 209.738C65.8298 209.715 65.7295 209.702 65.6338 209.697C65.5426 209.688 65.4378 209.684 65.3193 209.684C65.0277 209.684 64.7702 209.729 64.5469 209.82C64.3236 209.911 64.1344 210.039 63.9795 210.203C63.8245 210.367 63.7015 210.563 63.6104 210.791C63.5238 211.014 63.4668 211.26 63.4395 211.529L63.084 211.734C63.084 211.288 63.1273 210.868 63.2139 210.477C63.305 210.085 63.444 209.738 63.6309 209.438C63.8177 209.132 64.0547 208.895 64.3418 208.727C64.6335 208.553 64.9798 208.467 65.3809 208.467C65.472 208.467 65.5768 208.478 65.6953 208.501C65.8138 208.519 65.8958 208.54 65.9414 208.562ZM70.043 216.137C69.528 216.137 69.0609 216.05 68.6416 215.877C68.2269 215.699 67.8691 215.451 67.5684 215.132C67.2721 214.813 67.0443 214.435 66.8848 213.997C66.7253 213.56 66.6455 213.081 66.6455 212.562V212.274C66.6455 211.673 66.7344 211.137 66.9121 210.668C67.0898 210.194 67.3314 209.793 67.6367 209.465C67.9421 209.137 68.2884 208.888 68.6758 208.72C69.0632 208.551 69.4642 208.467 69.8789 208.467C70.4076 208.467 70.8633 208.558 71.2461 208.74C71.6335 208.923 71.9502 209.178 72.1963 209.506C72.4424 209.829 72.6247 210.212 72.7432 210.654C72.8617 211.092 72.9209 211.57 72.9209 212.09V212.657H67.3975V211.625H71.6562V211.529C71.638 211.201 71.5697 210.882 71.4512 210.572C71.3372 210.262 71.1549 210.007 70.9043 209.807C70.6536 209.606 70.3118 209.506 69.8789 209.506C69.5918 209.506 69.3275 209.567 69.0859 209.69C68.8444 209.809 68.637 209.987 68.4639 210.224C68.2907 210.461 68.1562 210.75 68.0605 211.092C67.9648 211.434 67.917 211.828 67.917 212.274V212.562C67.917 212.912 67.9648 213.243 68.0605 213.553C68.1608 213.858 68.3044 214.127 68.4912 214.359C68.6826 214.592 68.9128 214.774 69.1816 214.906C69.4551 215.038 69.765 215.104 70.1113 215.104C70.5579 215.104 70.9362 215.013 71.2461 214.831C71.556 214.649 71.8271 214.405 72.0596 214.1L72.8252 214.708C72.6657 214.95 72.4629 215.18 72.2168 215.398C71.9707 215.617 71.6676 215.795 71.3076 215.932C70.9521 216.068 70.5306 216.137 70.043 216.137ZM81.7324 212.097H79.0732V211.023H81.7324C82.2474 211.023 82.6644 210.941 82.9834 210.777C83.3024 210.613 83.5348 210.385 83.6807 210.094C83.8311 209.802 83.9062 209.469 83.9062 209.096C83.9062 208.754 83.8311 208.433 83.6807 208.132C83.5348 207.831 83.3024 207.59 82.9834 207.407C82.6644 207.22 82.2474 207.127 81.7324 207.127H79.3809V216H78.0615V206.047H81.7324C82.4844 206.047 83.1201 206.177 83.6396 206.437C84.1592 206.696 84.5534 207.056 84.8223 207.517C85.0911 207.972 85.2256 208.494 85.2256 209.082C85.2256 209.72 85.0911 210.265 84.8223 210.716C84.5534 211.167 84.1592 211.511 83.6396 211.748C83.1201 211.98 82.4844 212.097 81.7324 212.097ZM87.9668 209.766V216H86.7021V208.604H87.9326L87.9668 209.766ZM90.2773 208.562L90.2705 209.738C90.1657 209.715 90.0654 209.702 89.9697 209.697C89.8786 209.688 89.7738 209.684 89.6553 209.684C89.3636 209.684 89.1061 209.729 88.8828 209.82C88.6595 209.911 88.4704 210.039 88.3154 210.203C88.1605 210.367 88.0374 210.563 87.9463 210.791C87.8597 211.014 87.8027 211.26 87.7754 211.529L87.4199 211.734C87.4199 211.288 87.4632 210.868 87.5498 210.477C87.641 210.085 87.7799 209.738 87.9668 209.438C88.1536 209.132 88.3906 208.895 88.6777 208.727C88.9694 208.553 89.3158 208.467 89.7168 208.467C89.8079 208.467 89.9128 208.478 90.0312 208.501C90.1497 208.519 90.2318 208.54 90.2773 208.562ZM90.9746 212.384V212.227C90.9746 211.693 91.0521 211.199 91.207 210.743C91.362 210.283 91.5853 209.884 91.877 209.547C92.1686 209.205 92.5218 208.941 92.9365 208.754C93.3512 208.562 93.8161 208.467 94.3311 208.467C94.8506 208.467 95.3177 208.562 95.7324 208.754C96.1517 208.941 96.5072 209.205 96.7988 209.547C97.0951 209.884 97.3206 210.283 97.4756 210.743C97.6305 211.199 97.708 211.693 97.708 212.227V212.384C97.708 212.917 97.6305 213.411 97.4756 213.867C97.3206 214.323 97.0951 214.722 96.7988 215.063C96.5072 215.401 96.154 215.665 95.7393 215.856C95.3291 216.043 94.8643 216.137 94.3447 216.137C93.8252 216.137 93.3581 216.043 92.9434 215.856C92.5286 215.665 92.1732 215.401 91.877 215.063C91.5853 214.722 91.362 214.323 91.207 213.867C91.0521 213.411 90.9746 212.917 90.9746 212.384ZM92.2393 212.227V212.384C92.2393 212.753 92.2826 213.102 92.3691 213.43C92.4557 213.753 92.5856 214.04 92.7588 214.291C92.9365 214.542 93.1576 214.74 93.4219 214.886C93.6862 215.027 93.9938 215.098 94.3447 215.098C94.6911 215.098 94.9941 215.027 95.2539 214.886C95.5182 214.74 95.737 214.542 95.9102 214.291C96.0833 214.04 96.2132 213.753 96.2998 213.43C96.391 213.102 96.4365 212.753 96.4365 212.384V212.227C96.4365 211.862 96.391 211.518 96.2998 211.194C96.2132 210.866 96.0811 210.577 95.9033 210.326C95.7301 210.071 95.5114 209.87 95.2471 209.725C94.9873 209.579 94.682 209.506 94.3311 209.506C93.9847 209.506 93.6794 209.579 93.415 209.725C93.1553 209.87 92.9365 210.071 92.7588 210.326C92.5856 210.577 92.4557 210.866 92.3691 211.194C92.2826 211.518 92.2393 211.862 92.2393 212.227ZM101.434 214.858L103.457 208.604H104.749L102.09 216H101.242L101.434 214.858ZM99.7451 208.604L101.83 214.893L101.974 216H101.126L98.4463 208.604H99.7451ZM107.34 208.604V216H106.068V208.604H107.34ZM105.973 206.642C105.973 206.437 106.034 206.263 106.157 206.122C106.285 205.981 106.472 205.91 106.718 205.91C106.959 205.91 107.144 205.981 107.271 206.122C107.404 206.263 107.47 206.437 107.47 206.642C107.47 206.838 107.404 207.006 107.271 207.147C107.144 207.284 106.959 207.353 106.718 207.353C106.472 207.353 106.285 207.284 106.157 207.147C106.034 207.006 105.973 206.838 105.973 206.642ZM114.032 214.564V205.5H115.304V216H114.142L114.032 214.564ZM109.056 212.384V212.24C109.056 211.675 109.124 211.162 109.261 210.702C109.402 210.237 109.6 209.839 109.855 209.506C110.115 209.173 110.423 208.918 110.778 208.74C111.138 208.558 111.539 208.467 111.981 208.467C112.446 208.467 112.852 208.549 113.198 208.713C113.549 208.872 113.845 209.107 114.087 209.417C114.333 209.722 114.527 210.091 114.668 210.524C114.809 210.957 114.907 211.447 114.962 211.994V212.623C114.912 213.165 114.814 213.653 114.668 214.086C114.527 214.519 114.333 214.888 114.087 215.193C113.845 215.499 113.549 215.733 113.198 215.897C112.847 216.057 112.437 216.137 111.968 216.137C111.535 216.137 111.138 216.043 110.778 215.856C110.423 215.67 110.115 215.408 109.855 215.07C109.6 214.733 109.402 214.337 109.261 213.881C109.124 213.421 109.056 212.922 109.056 212.384ZM110.327 212.24V212.384C110.327 212.753 110.364 213.099 110.437 213.423C110.514 213.746 110.632 214.031 110.792 214.277C110.951 214.523 111.154 214.717 111.4 214.858C111.646 214.995 111.94 215.063 112.282 215.063C112.701 215.063 113.046 214.975 113.314 214.797C113.588 214.619 113.807 214.384 113.971 214.093C114.135 213.801 114.262 213.484 114.354 213.143V211.495C114.299 211.244 114.219 211.003 114.114 210.771C114.014 210.534 113.882 210.324 113.718 210.142C113.558 209.955 113.36 209.807 113.123 209.697C112.891 209.588 112.615 209.533 112.296 209.533C111.95 209.533 111.651 209.606 111.4 209.752C111.154 209.893 110.951 210.089 110.792 210.34C110.632 210.586 110.514 210.873 110.437 211.201C110.364 211.525 110.327 211.871 110.327 212.24ZM120.342 216.137C119.827 216.137 119.36 216.05 118.94 215.877C118.526 215.699 118.168 215.451 117.867 215.132C117.571 214.813 117.343 214.435 117.184 213.997C117.024 213.56 116.944 213.081 116.944 212.562V212.274C116.944 211.673 117.033 211.137 117.211 210.668C117.389 210.194 117.63 209.793 117.936 209.465C118.241 209.137 118.587 208.888 118.975 208.72C119.362 208.551 119.763 208.467 120.178 208.467C120.706 208.467 121.162 208.558 121.545 208.74C121.932 208.923 122.249 209.178 122.495 209.506C122.741 209.829 122.924 210.212 123.042 210.654C123.16 211.092 123.22 211.57 123.22 212.09V212.657H117.696V211.625H121.955V211.529C121.937 211.201 121.868 210.882 121.75 210.572C121.636 210.262 121.454 210.007 121.203 209.807C120.952 209.606 120.611 209.506 120.178 209.506C119.891 209.506 119.626 209.567 119.385 209.69C119.143 209.809 118.936 209.987 118.763 210.224C118.59 210.461 118.455 210.75 118.359 211.092C118.264 211.434 118.216 211.828 118.216 212.274V212.562C118.216 212.912 118.264 213.243 118.359 213.553C118.46 213.858 118.603 214.127 118.79 214.359C118.981 214.592 119.212 214.774 119.48 214.906C119.754 215.038 120.064 215.104 120.41 215.104C120.857 215.104 121.235 215.013 121.545 214.831C121.855 214.649 122.126 214.405 122.358 214.1L123.124 214.708C122.965 214.95 122.762 215.18 122.516 215.398C122.27 215.617 121.966 215.795 121.606 215.932C121.251 216.068 120.829 216.137 120.342 216.137ZM125.961 209.766V216H124.696V208.604H125.927L125.961 209.766ZM128.271 208.562L128.265 209.738C128.16 209.715 128.06 209.702 127.964 209.697C127.873 209.688 127.768 209.684 127.649 209.684C127.358 209.684 127.1 209.729 126.877 209.82C126.654 209.911 126.465 210.039 126.31 210.203C126.155 210.367 126.032 210.563 125.94 210.791C125.854 211.014 125.797 211.26 125.77 211.529L125.414 211.734C125.414 211.288 125.457 210.868 125.544 210.477C125.635 210.085 125.774 209.738 125.961 209.438C126.148 209.132 126.385 208.895 126.672 208.727C126.964 208.553 127.31 208.467 127.711 208.467C127.802 208.467 127.907 208.478 128.025 208.501C128.144 208.519 128.226 208.54 128.271 208.562ZM133.747 214.038C133.747 213.856 133.706 213.687 133.624 213.532C133.547 213.373 133.385 213.229 133.139 213.102C132.897 212.969 132.533 212.855 132.045 212.76C131.635 212.673 131.263 212.571 130.931 212.452C130.603 212.334 130.322 212.19 130.09 212.021C129.862 211.853 129.687 211.655 129.563 211.427C129.44 211.199 129.379 210.932 129.379 210.627C129.379 210.335 129.443 210.06 129.57 209.8C129.702 209.54 129.887 209.31 130.124 209.109C130.366 208.909 130.655 208.752 130.992 208.638C131.329 208.524 131.705 208.467 132.12 208.467C132.713 208.467 133.218 208.572 133.638 208.781C134.057 208.991 134.378 209.271 134.602 209.622C134.825 209.968 134.937 210.354 134.937 210.777H133.672C133.672 210.572 133.61 210.374 133.487 210.183C133.369 209.987 133.193 209.825 132.961 209.697C132.733 209.57 132.453 209.506 132.12 209.506C131.769 209.506 131.484 209.561 131.266 209.67C131.051 209.775 130.894 209.909 130.794 210.073C130.698 210.237 130.65 210.41 130.65 210.593C130.65 210.729 130.673 210.853 130.719 210.962C130.769 211.067 130.855 211.165 130.979 211.256C131.102 211.342 131.275 211.424 131.498 211.502C131.721 211.579 132.006 211.657 132.353 211.734C132.959 211.871 133.458 212.035 133.85 212.227C134.242 212.418 134.533 212.653 134.725 212.931C134.916 213.209 135.012 213.546 135.012 213.942C135.012 214.266 134.943 214.562 134.807 214.831C134.674 215.1 134.481 215.332 134.226 215.528C133.975 215.72 133.674 215.87 133.323 215.979C132.977 216.084 132.587 216.137 132.154 216.137C131.503 216.137 130.951 216.021 130.5 215.788C130.049 215.556 129.707 215.255 129.475 214.886C129.242 214.517 129.126 214.127 129.126 213.717H130.397C130.416 214.063 130.516 214.339 130.698 214.544C130.881 214.744 131.104 214.888 131.368 214.975C131.632 215.057 131.895 215.098 132.154 215.098C132.501 215.098 132.79 215.052 133.022 214.961C133.259 214.87 133.439 214.744 133.562 214.585C133.686 214.425 133.747 214.243 133.747 214.038Z" fill="#12161E"/>
<path d="M8.16406 251.835H9.47656C9.4082 252.464 9.22819 253.027 8.93652 253.523C8.64486 254.02 8.23242 254.414 7.69922 254.706C7.16602 254.993 6.50065 255.137 5.70312 255.137C5.11979 255.137 4.58887 255.027 4.11035 254.809C3.63639 254.59 3.22852 254.28 2.88672 253.879C2.54492 253.473 2.2806 252.988 2.09375 252.423C1.91146 251.853 1.82031 251.22 1.82031 250.522V249.531C1.82031 248.834 1.91146 248.203 2.09375 247.638C2.2806 247.068 2.5472 246.58 2.89355 246.175C3.24447 245.769 3.66602 245.457 4.1582 245.238C4.65039 245.02 5.2041 244.91 5.81934 244.91C6.57129 244.91 7.20703 245.051 7.72656 245.334C8.24609 245.617 8.64941 246.008 8.93652 246.51C9.22819 247.007 9.4082 247.583 9.47656 248.239H8.16406C8.10026 247.774 7.98177 247.376 7.80859 247.043C7.63542 246.706 7.38932 246.446 7.07031 246.264C6.7513 246.081 6.33431 245.99 5.81934 245.99C5.37728 245.99 4.98763 246.075 4.65039 246.243C4.31771 246.412 4.03743 246.651 3.80957 246.961C3.58626 247.271 3.41764 247.642 3.30371 248.075C3.18978 248.508 3.13281 248.989 3.13281 249.518V250.522C3.13281 251.01 3.18294 251.468 3.2832 251.896C3.38802 252.325 3.54525 252.701 3.75488 253.024C3.96452 253.348 4.23112 253.603 4.55469 253.79C4.87826 253.972 5.26107 254.063 5.70312 254.063C6.26367 254.063 6.71029 253.975 7.04297 253.797C7.37565 253.619 7.6263 253.364 7.79492 253.031C7.9681 252.699 8.09115 252.3 8.16406 251.835ZM10.748 251.384V251.227C10.748 250.693 10.8255 250.199 10.9805 249.743C11.1354 249.283 11.3587 248.884 11.6504 248.547C11.9421 248.205 12.2952 247.941 12.71 247.754C13.1247 247.562 13.5895 247.467 14.1045 247.467C14.624 247.467 15.0911 247.562 15.5059 247.754C15.9251 247.941 16.2806 248.205 16.5723 248.547C16.8685 248.884 17.0941 249.283 17.249 249.743C17.404 250.199 17.4814 250.693 17.4814 251.227V251.384C17.4814 251.917 17.404 252.411 17.249 252.867C17.0941 253.323 16.8685 253.722 16.5723 254.063C16.2806 254.401 15.9274 254.665 15.5127 254.856C15.1025 255.043 14.6377 255.137 14.1182 255.137C13.5986 255.137 13.1315 255.043 12.7168 254.856C12.3021 254.665 11.9466 254.401 11.6504 254.063C11.3587 253.722 11.1354 253.323 10.9805 252.867C10.8255 252.411 10.748 251.917 10.748 251.384ZM12.0127 251.227V251.384C12.0127 251.753 12.056 252.102 12.1426 252.43C12.2292 252.753 12.359 253.04 12.5322 253.291C12.71 253.542 12.931 253.74 13.1953 253.886C13.4596 254.027 13.7673 254.098 14.1182 254.098C14.4645 254.098 14.7676 254.027 15.0273 253.886C15.2917 253.74 15.5104 253.542 15.6836 253.291C15.8568 253.04 15.9867 252.753 16.0732 252.43C16.1644 252.102 16.21 251.753 16.21 251.384V251.227C16.21 250.862 16.1644 250.518 16.0732 250.194C15.9867 249.866 15.8545 249.577 15.6768 249.326C15.5036 249.071 15.2848 248.87 15.0205 248.725C14.7607 248.579 14.4554 248.506 14.1045 248.506C13.7581 248.506 13.4528 248.579 13.1885 248.725C12.9287 248.87 12.71 249.071 12.5322 249.326C12.359 249.577 12.2292 249.866 12.1426 250.194C12.056 250.518 12.0127 250.862 12.0127 251.227ZM20.332 248.766V255H19.0674V247.604H20.2979L20.332 248.766ZM22.6426 247.562L22.6357 248.738C22.5309 248.715 22.4307 248.702 22.335 248.697C22.2438 248.688 22.139 248.684 22.0205 248.684C21.7288 248.684 21.4714 248.729 21.248 248.82C21.0247 248.911 20.8356 249.039 20.6807 249.203C20.5257 249.367 20.4027 249.563 20.3115 249.791C20.2249 250.014 20.168 250.26 20.1406 250.529L19.7852 250.734C19.7852 250.288 19.8285 249.868 19.915 249.477C20.0062 249.085 20.1452 248.738 20.332 248.438C20.5189 248.132 20.7559 247.895 21.043 247.727C21.3346 247.553 21.681 247.467 22.082 247.467C22.1732 247.467 22.278 247.478 22.3965 247.501C22.515 247.519 22.597 247.54 22.6426 247.562ZM26.7441 255.137C26.2292 255.137 25.762 255.05 25.3428 254.877C24.9281 254.699 24.5703 254.451 24.2695 254.132C23.9733 253.813 23.7454 253.435 23.5859 252.997C23.4264 252.56 23.3467 252.081 23.3467 251.562V251.274C23.3467 250.673 23.4355 250.137 23.6133 249.668C23.791 249.194 24.0326 248.793 24.3379 248.465C24.6432 248.137 24.9896 247.888 25.377 247.72C25.7643 247.551 26.1654 247.467 26.5801 247.467C27.1087 247.467 27.5645 247.558 27.9473 247.74C28.3346 247.923 28.6514 248.178 28.8975 248.506C29.1436 248.829 29.3258 249.212 29.4443 249.654C29.5628 250.092 29.6221 250.57 29.6221 251.09V251.657H24.0986V250.625H28.3574V250.529C28.3392 250.201 28.2708 249.882 28.1523 249.572C28.0384 249.262 27.8561 249.007 27.6055 248.807C27.3548 248.606 27.013 248.506 26.5801 248.506C26.293 248.506 26.0286 248.567 25.7871 248.69C25.5456 248.809 25.3382 248.987 25.165 249.224C24.9919 249.461 24.8574 249.75 24.7617 250.092C24.666 250.434 24.6182 250.828 24.6182 251.274V251.562C24.6182 251.912 24.666 252.243 24.7617 252.553C24.862 252.858 25.0055 253.127 25.1924 253.359C25.3838 253.592 25.6139 253.774 25.8828 253.906C26.1562 254.038 26.4661 254.104 26.8125 254.104C27.2591 254.104 27.6374 254.013 27.9473 253.831C28.2572 253.649 28.5283 253.405 28.7607 253.1L29.5264 253.708C29.3669 253.95 29.1641 254.18 28.918 254.398C28.6719 254.617 28.3688 254.795 28.0088 254.932C27.6533 255.068 27.2318 255.137 26.7441 255.137ZM40.0674 252.484C40.0674 252.252 40.0309 252.047 39.958 251.869C39.8896 251.687 39.7666 251.523 39.5889 251.377C39.4157 251.231 39.1742 251.092 38.8643 250.96C38.5589 250.828 38.1715 250.693 37.7021 250.557C37.21 250.411 36.7656 250.249 36.3691 250.071C35.9727 249.889 35.6331 249.682 35.3506 249.449C35.068 249.217 34.8516 248.95 34.7012 248.649C34.5508 248.349 34.4756 248.005 34.4756 247.617C34.4756 247.23 34.5553 246.872 34.7148 246.544C34.8743 246.216 35.1022 245.931 35.3984 245.689C35.6992 245.443 36.057 245.252 36.4717 245.115C36.8864 244.979 37.349 244.91 37.8594 244.91C38.6068 244.91 39.2402 245.054 39.7598 245.341C40.2839 245.623 40.6826 245.995 40.9561 246.455C41.2295 246.911 41.3662 247.398 41.3662 247.918H40.0537C40.0537 247.544 39.974 247.214 39.8145 246.927C39.6549 246.635 39.4134 246.407 39.0898 246.243C38.7663 246.075 38.3561 245.99 37.8594 245.99C37.39 245.99 37.0026 246.061 36.6973 246.202C36.3919 246.343 36.1641 246.535 36.0137 246.776C35.8678 247.018 35.7949 247.294 35.7949 247.604C35.7949 247.813 35.8382 248.005 35.9248 248.178C36.016 248.346 36.1549 248.504 36.3418 248.649C36.5332 248.795 36.7747 248.93 37.0664 249.053C37.3626 249.176 37.7158 249.294 38.126 249.408C38.6911 249.568 39.1787 249.745 39.5889 249.941C39.999 250.137 40.3363 250.358 40.6006 250.604C40.8695 250.846 41.0677 251.122 41.1953 251.432C41.3275 251.737 41.3936 252.083 41.3936 252.471C41.3936 252.876 41.3115 253.243 41.1475 253.571C40.9834 253.899 40.7487 254.18 40.4434 254.412C40.138 254.645 39.7712 254.825 39.3428 254.952C38.9189 255.075 38.445 255.137 37.9209 255.137C37.4606 255.137 37.0072 255.073 36.5605 254.945C36.1185 254.818 35.7152 254.626 35.3506 254.371C34.9906 254.116 34.7012 253.801 34.4824 253.428C34.2682 253.049 34.1611 252.612 34.1611 252.115H35.4736C35.4736 252.457 35.5397 252.751 35.6719 252.997C35.804 253.239 35.984 253.439 36.2119 253.599C36.4443 253.758 36.7064 253.877 36.998 253.954C37.2943 254.027 37.6019 254.063 37.9209 254.063C38.3812 254.063 38.7708 254 39.0898 253.872C39.4089 253.744 39.6504 253.562 39.8145 253.325C39.9831 253.088 40.0674 252.808 40.0674 252.484ZM44.9619 254.234L47.0195 247.604H48.373L45.4062 256.142C45.3379 256.324 45.2467 256.52 45.1328 256.729C45.0234 256.944 44.8822 257.146 44.709 257.338C44.5358 257.529 44.3262 257.684 44.0801 257.803C43.8385 257.926 43.5492 257.987 43.2119 257.987C43.1117 257.987 42.984 257.974 42.8291 257.946C42.6742 257.919 42.5648 257.896 42.501 257.878L42.4941 256.853C42.5306 256.857 42.5876 256.862 42.665 256.866C42.7471 256.875 42.804 256.88 42.8359 256.88C43.123 256.88 43.3669 256.841 43.5674 256.764C43.7679 256.691 43.9365 256.565 44.0732 256.388C44.2145 256.215 44.3353 255.975 44.4355 255.67L44.9619 254.234ZM43.4512 247.604L45.3721 253.346L45.7002 254.679L44.791 255.144L42.0703 247.604H43.4512ZM53.8213 253.038C53.8213 252.856 53.7803 252.687 53.6982 252.532C53.6208 252.373 53.459 252.229 53.2129 252.102C52.9714 251.969 52.6068 251.855 52.1191 251.76C51.709 251.673 51.3376 251.571 51.0049 251.452C50.6768 251.334 50.3965 251.19 50.1641 251.021C49.9362 250.853 49.7607 250.655 49.6377 250.427C49.5146 250.199 49.4531 249.932 49.4531 249.627C49.4531 249.335 49.5169 249.06 49.6445 248.8C49.7767 248.54 49.9613 248.31 50.1982 248.109C50.4398 247.909 50.7292 247.752 51.0664 247.638C51.4036 247.524 51.7796 247.467 52.1943 247.467C52.7868 247.467 53.2926 247.572 53.7119 247.781C54.1312 247.991 54.4525 248.271 54.6758 248.622C54.8991 248.968 55.0107 249.354 55.0107 249.777H53.7461C53.7461 249.572 53.6846 249.374 53.5615 249.183C53.443 248.987 53.2676 248.825 53.0352 248.697C52.8073 248.57 52.527 248.506 52.1943 248.506C51.8434 248.506 51.5586 248.561 51.3398 248.67C51.1257 248.775 50.9684 248.909 50.8682 249.073C50.7725 249.237 50.7246 249.41 50.7246 249.593C50.7246 249.729 50.7474 249.853 50.793 249.962C50.8431 250.067 50.9297 250.165 51.0527 250.256C51.1758 250.342 51.349 250.424 51.5723 250.502C51.7956 250.579 52.0804 250.657 52.4268 250.734C53.0329 250.871 53.5319 251.035 53.9238 251.227C54.3158 251.418 54.6074 251.653 54.7988 251.931C54.9902 252.209 55.0859 252.546 55.0859 252.942C55.0859 253.266 55.0176 253.562 54.8809 253.831C54.7487 254.1 54.555 254.332 54.2998 254.528C54.0492 254.72 53.7484 254.87 53.3975 254.979C53.0511 255.084 52.6615 255.137 52.2285 255.137C51.5768 255.137 51.0254 255.021 50.5742 254.788C50.123 254.556 49.7812 254.255 49.5488 253.886C49.3164 253.517 49.2002 253.127 49.2002 252.717H50.4717C50.4899 253.063 50.5902 253.339 50.7725 253.544C50.9548 253.744 51.1781 253.888 51.4424 253.975C51.7067 254.057 51.9688 254.098 52.2285 254.098C52.5749 254.098 52.8643 254.052 53.0967 253.961C53.3337 253.87 53.5137 253.744 53.6367 253.585C53.7598 253.425 53.8213 253.243 53.8213 253.038ZM59.8438 247.604V248.574H55.8447V247.604H59.8438ZM57.1982 245.806H58.4629V253.168C58.4629 253.419 58.5016 253.608 58.5791 253.735C58.6566 253.863 58.7568 253.947 58.8799 253.988C59.0029 254.029 59.1351 254.05 59.2764 254.05C59.3812 254.05 59.4906 254.041 59.6045 254.022C59.723 254 59.8118 253.981 59.8711 253.968L59.8779 255C59.7777 255.032 59.6455 255.062 59.4814 255.089C59.3219 255.121 59.1283 255.137 58.9004 255.137C58.5905 255.137 58.3057 255.075 58.0459 254.952C57.7861 254.829 57.5788 254.624 57.4238 254.337C57.2734 254.045 57.1982 253.653 57.1982 253.161V245.806ZM64.3965 255.137C63.8815 255.137 63.4144 255.05 62.9951 254.877C62.5804 254.699 62.2227 254.451 61.9219 254.132C61.6257 253.813 61.3978 253.435 61.2383 252.997C61.0788 252.56 60.999 252.081 60.999 251.562V251.274C60.999 250.673 61.0879 250.137 61.2656 249.668C61.4434 249.194 61.6849 248.793 61.9902 248.465C62.2956 248.137 62.6419 247.888 63.0293 247.72C63.4167 247.551 63.8177 247.467 64.2324 247.467C64.7611 247.467 65.2168 247.558 65.5996 247.74C65.987 247.923 66.3037 248.178 66.5498 248.506C66.7959 248.829 66.9782 249.212 67.0967 249.654C67.2152 250.092 67.2744 250.57 67.2744 251.09V251.657H61.751V250.625H66.0098V250.529C65.9915 250.201 65.9232 249.882 65.8047 249.572C65.6908 249.262 65.5085 249.007 65.2578 248.807C65.0072 248.606 64.6654 248.506 64.2324 248.506C63.9453 248.506 63.681 248.567 63.4395 248.69C63.1979 248.809 62.9906 248.987 62.8174 249.224C62.6442 249.461 62.5098 249.75 62.4141 250.092C62.3184 250.434 62.2705 250.828 62.2705 251.274V251.562C62.2705 251.912 62.3184 252.243 62.4141 252.553C62.5143 252.858 62.6579 253.127 62.8447 253.359C63.0361 253.592 63.2663 253.774 63.5352 253.906C63.8086 254.038 64.1185 254.104 64.4648 254.104C64.9115 254.104 65.2897 254.013 65.5996 253.831C65.9095 253.649 66.1807 253.405 66.4131 253.1L67.1787 253.708C67.0192 253.95 66.8164 254.18 66.5703 254.398C66.3242 254.617 66.0212 254.795 65.6611 254.932C65.3057 255.068 64.8841 255.137 64.3965 255.137ZM70.0088 249.073V255H68.7373V247.604H69.9404L70.0088 249.073ZM69.749 251.021L69.1611 251.001C69.1657 250.495 69.2318 250.028 69.3594 249.6C69.487 249.167 69.6761 248.791 69.9268 248.472C70.1774 248.153 70.4896 247.907 70.8633 247.733C71.237 247.556 71.6699 247.467 72.1621 247.467C72.5085 247.467 72.8275 247.517 73.1191 247.617C73.4108 247.713 73.6637 247.866 73.8779 248.075C74.0921 248.285 74.2585 248.554 74.377 248.882C74.4954 249.21 74.5547 249.606 74.5547 250.071V255H73.29V250.133C73.29 249.745 73.224 249.436 73.0918 249.203C72.9642 248.971 72.7819 248.802 72.5449 248.697C72.3079 248.588 72.0299 248.533 71.7109 248.533C71.3372 248.533 71.0251 248.599 70.7744 248.731C70.5238 248.864 70.3232 249.046 70.1729 249.278C70.0225 249.511 69.9131 249.777 69.8447 250.078C69.7809 250.374 69.749 250.689 69.749 251.021ZM74.541 250.324L73.6934 250.584C73.6979 250.178 73.764 249.789 73.8916 249.415C74.0238 249.041 74.2129 248.709 74.459 248.417C74.7096 248.125 75.0173 247.895 75.3818 247.727C75.7464 247.553 76.1634 247.467 76.6328 247.467C77.0293 247.467 77.3802 247.519 77.6855 247.624C77.9954 247.729 78.2552 247.891 78.4648 248.109C78.679 248.324 78.8408 248.599 78.9502 248.937C79.0596 249.274 79.1143 249.675 79.1143 250.14V255H77.8428V250.126C77.8428 249.711 77.7767 249.39 77.6445 249.162C77.5169 248.93 77.3346 248.768 77.0977 248.677C76.8652 248.581 76.5872 248.533 76.2637 248.533C75.9857 248.533 75.7396 248.581 75.5254 248.677C75.3112 248.772 75.1312 248.905 74.9854 249.073C74.8395 249.237 74.7279 249.426 74.6504 249.641C74.5775 249.855 74.541 250.083 74.541 250.324ZM85.335 253.038C85.335 252.856 85.2939 252.687 85.2119 252.532C85.1344 252.373 84.9727 252.229 84.7266 252.102C84.485 251.969 84.1204 251.855 83.6328 251.76C83.2227 251.673 82.8512 251.571 82.5186 251.452C82.1904 251.334 81.9102 251.19 81.6777 251.021C81.4499 250.853 81.2744 250.655 81.1514 250.427C81.0283 250.199 80.9668 249.932 80.9668 249.627C80.9668 249.335 81.0306 249.06 81.1582 248.8C81.2904 248.54 81.4749 248.31 81.7119 248.109C81.9535 247.909 82.2428 247.752 82.5801 247.638C82.9173 247.524 83.2933 247.467 83.708 247.467C84.3005 247.467 84.8063 247.572 85.2256 247.781C85.6449 247.991 85.9661 248.271 86.1895 248.622C86.4128 248.968 86.5244 249.354 86.5244 249.777H85.2598C85.2598 249.572 85.1982 249.374 85.0752 249.183C84.9567 248.987 84.7812 248.825 84.5488 248.697C84.321 248.57 84.0407 248.506 83.708 248.506C83.3571 248.506 83.0723 248.561 82.8535 248.67C82.6393 248.775 82.4821 248.909 82.3818 249.073C82.2861 249.237 82.2383 249.41 82.2383 249.593C82.2383 249.729 82.2611 249.853 82.3066 249.962C82.3568 250.067 82.4434 250.165 82.5664 250.256C82.6895 250.342 82.8626 250.424 83.0859 250.502C83.3092 250.579 83.5941 250.657 83.9404 250.734C84.5465 250.871 85.0456 251.035 85.4375 251.227C85.8294 251.418 86.1211 251.653 86.3125 251.931C86.5039 252.209 86.5996 252.546 86.5996 252.942C86.5996 253.266 86.5312 253.562 86.3945 253.831C86.2624 254.1 86.0687 254.332 85.8135 254.528C85.5628 254.72 85.262 254.87 84.9111 254.979C84.5648 255.084 84.1751 255.137 83.7422 255.137C83.0905 255.137 82.5391 255.021 82.0879 254.788C81.6367 254.556 81.2949 254.255 81.0625 253.886C80.8301 253.517 80.7139 253.127 80.7139 252.717H81.9854C82.0036 253.063 82.1038 253.339 82.2861 253.544C82.4684 253.744 82.6917 253.888 82.9561 253.975C83.2204 254.057 83.4824 254.098 83.7422 254.098C84.0885 254.098 84.3779 254.052 84.6104 253.961C84.8473 253.87 85.0273 253.744 85.1504 253.585C85.2734 253.425 85.335 253.243 85.335 253.038Z" fill="#12161E"/>
<path d="M7.45996 292.484C7.45996 292.252 7.4235 292.047 7.35059 291.869C7.28223 291.687 7.15918 291.523 6.98145 291.377C6.80827 291.231 6.56673 291.092 6.25684 290.96C5.9515 290.828 5.56413 290.693 5.09473 290.557C4.60254 290.411 4.1582 290.249 3.76172 290.071C3.36523 289.889 3.02572 289.682 2.74316 289.449C2.46061 289.217 2.24414 288.95 2.09375 288.649C1.94336 288.349 1.86816 288.005 1.86816 287.617C1.86816 287.23 1.94792 286.872 2.10742 286.544C2.26693 286.216 2.49479 285.931 2.79102 285.689C3.0918 285.443 3.44954 285.252 3.86426 285.115C4.27897 284.979 4.74154 284.91 5.25195 284.91C5.99935 284.91 6.63281 285.054 7.15234 285.341C7.67643 285.623 8.0752 285.995 8.34863 286.455C8.62207 286.911 8.75879 287.398 8.75879 287.918H7.44629C7.44629 287.544 7.36654 287.214 7.20703 286.927C7.04753 286.635 6.80599 286.407 6.48242 286.243C6.15885 286.075 5.7487 285.99 5.25195 285.99C4.78255 285.99 4.39518 286.061 4.08984 286.202C3.78451 286.343 3.55664 286.535 3.40625 286.776C3.26042 287.018 3.1875 287.294 3.1875 287.604C3.1875 287.813 3.23079 288.005 3.31738 288.178C3.40853 288.346 3.54753 288.504 3.73438 288.649C3.92578 288.795 4.16732 288.93 4.45898 289.053C4.75521 289.176 5.1084 289.294 5.51855 289.408C6.08366 289.568 6.57129 289.745 6.98145 289.941C7.3916 290.137 7.72884 290.358 7.99316 290.604C8.26204 290.846 8.46029 291.122 8.58789 291.432C8.72005 291.737 8.78613 292.083 8.78613 292.471C8.78613 292.876 8.7041 293.243 8.54004 293.571C8.37598 293.899 8.14128 294.18 7.83594 294.412C7.5306 294.645 7.16374 294.825 6.73535 294.952C6.31152 295.075 5.83757 295.137 5.31348 295.137C4.85319 295.137 4.39974 295.073 3.95312 294.945C3.51107 294.818 3.10775 294.626 2.74316 294.371C2.38314 294.116 2.09375 293.801 1.875 293.428C1.66081 293.049 1.55371 292.612 1.55371 292.115H2.86621C2.86621 292.457 2.93229 292.751 3.06445 292.997C3.19661 293.239 3.37663 293.439 3.60449 293.599C3.83691 293.758 4.09896 293.877 4.39062 293.954C4.68685 294.027 4.99447 294.063 5.31348 294.063C5.77376 294.063 6.16341 294 6.48242 293.872C6.80143 293.744 7.04297 293.562 7.20703 293.325C7.37565 293.088 7.45996 292.808 7.45996 292.484ZM11.541 289.025V297.844H10.2695V287.604H11.4316L11.541 289.025ZM16.5244 291.24V291.384C16.5244 291.922 16.4606 292.421 16.333 292.881C16.2054 293.337 16.0186 293.733 15.7725 294.07C15.5309 294.408 15.2324 294.67 14.877 294.856C14.5215 295.043 14.1136 295.137 13.6533 295.137C13.1839 295.137 12.7692 295.059 12.4092 294.904C12.0492 294.749 11.7438 294.524 11.4932 294.228C11.2425 293.931 11.042 293.576 10.8916 293.161C10.7458 292.746 10.6455 292.279 10.5908 291.76V290.994C10.6455 290.447 10.748 289.957 10.8984 289.524C11.0488 289.091 11.2471 288.722 11.4932 288.417C11.7438 288.107 12.0469 287.872 12.4023 287.713C12.7578 287.549 13.168 287.467 13.6328 287.467C14.0977 287.467 14.5101 287.558 14.8701 287.74C15.2301 287.918 15.5332 288.173 15.7793 288.506C16.0254 288.839 16.21 289.237 16.333 289.702C16.4606 290.162 16.5244 290.675 16.5244 291.24ZM15.2529 291.384V291.24C15.2529 290.871 15.2142 290.525 15.1367 290.201C15.0592 289.873 14.9385 289.586 14.7744 289.34C14.6149 289.089 14.4098 288.893 14.1592 288.752C13.9085 288.606 13.61 288.533 13.2637 288.533C12.9447 288.533 12.6667 288.588 12.4297 288.697C12.1973 288.807 11.999 288.955 11.835 289.142C11.6709 289.324 11.5365 289.534 11.4316 289.771C11.3314 290.003 11.2562 290.244 11.2061 290.495V292.266C11.2972 292.585 11.4248 292.885 11.5889 293.168C11.7529 293.446 11.9717 293.672 12.2451 293.845C12.5186 294.013 12.8626 294.098 13.2773 294.098C13.6191 294.098 13.9131 294.027 14.1592 293.886C14.4098 293.74 14.6149 293.542 14.7744 293.291C14.9385 293.04 15.0592 292.753 15.1367 292.43C15.2142 292.102 15.2529 291.753 15.2529 291.384ZM17.8027 291.384V291.227C17.8027 290.693 17.8802 290.199 18.0352 289.743C18.1901 289.283 18.4134 288.884 18.7051 288.547C18.9967 288.205 19.3499 287.941 19.7646 287.754C20.1794 287.562 20.6442 287.467 21.1592 287.467C21.6787 287.467 22.1458 287.562 22.5605 287.754C22.9798 287.941 23.3353 288.205 23.627 288.547C23.9232 288.884 24.1488 289.283 24.3037 289.743C24.4587 290.199 24.5361 290.693 24.5361 291.227V291.384C24.5361 291.917 24.4587 292.411 24.3037 292.867C24.1488 293.323 23.9232 293.722 23.627 294.063C23.3353 294.401 22.9821 294.665 22.5674 294.856C22.1572 295.043 21.6924 295.137 21.1729 295.137C20.6533 295.137 20.1862 295.043 19.7715 294.856C19.3568 294.665 19.0013 294.401 18.7051 294.063C18.4134 293.722 18.1901 293.323 18.0352 292.867C17.8802 292.411 17.8027 291.917 17.8027 291.384ZM19.0674 291.227V291.384C19.0674 291.753 19.1107 292.102 19.1973 292.43C19.2839 292.753 19.4137 293.04 19.5869 293.291C19.7646 293.542 19.9857 293.74 20.25 293.886C20.5143 294.027 20.8219 294.098 21.1729 294.098C21.5192 294.098 21.8223 294.027 22.082 293.886C22.3464 293.74 22.5651 293.542 22.7383 293.291C22.9115 293.04 23.0413 292.753 23.1279 292.43C23.2191 292.102 23.2646 291.753 23.2646 291.384V291.227C23.2646 290.862 23.2191 290.518 23.1279 290.194C23.0413 289.866 22.9092 289.577 22.7314 289.326C22.5583 289.071 22.3395 288.87 22.0752 288.725C21.8154 288.579 21.5101 288.506 21.1592 288.506C20.8128 288.506 20.5075 288.579 20.2432 288.725C19.9834 288.87 19.7646 289.071 19.5869 289.326C19.4137 289.577 19.2839 289.866 19.1973 290.194C19.1107 290.518 19.0674 290.862 19.0674 291.227ZM27.3867 289.183V295H26.1221V287.604H27.3184L27.3867 289.183ZM27.0859 291.021L26.5596 291.001C26.5641 290.495 26.6393 290.028 26.7852 289.6C26.931 289.167 27.1361 288.791 27.4004 288.472C27.6647 288.153 27.9792 287.907 28.3438 287.733C28.7129 287.556 29.1208 287.467 29.5674 287.467C29.932 287.467 30.2601 287.517 30.5518 287.617C30.8434 287.713 31.0918 287.868 31.2969 288.082C31.5065 288.296 31.666 288.574 31.7754 288.916C31.8848 289.253 31.9395 289.666 31.9395 290.153V295H30.668V290.14C30.668 289.752 30.611 289.442 30.4971 289.21C30.3831 288.973 30.2168 288.802 29.998 288.697C29.7793 288.588 29.5104 288.533 29.1914 288.533C28.877 288.533 28.5898 288.599 28.3301 288.731C28.0749 288.864 27.8538 289.046 27.667 289.278C27.4847 289.511 27.3411 289.777 27.2363 290.078C27.1361 290.374 27.0859 290.689 27.0859 291.021ZM38.167 293.038C38.167 292.856 38.126 292.687 38.0439 292.532C37.9665 292.373 37.8047 292.229 37.5586 292.102C37.3171 291.969 36.9525 291.855 36.4648 291.76C36.0547 291.673 35.6833 291.571 35.3506 291.452C35.0225 291.334 34.7422 291.19 34.5098 291.021C34.2819 290.853 34.1064 290.655 33.9834 290.427C33.8604 290.199 33.7988 289.932 33.7988 289.627C33.7988 289.335 33.8626 289.06 33.9902 288.8C34.1224 288.54 34.307 288.31 34.5439 288.109C34.7855 287.909 35.0749 287.752 35.4121 287.638C35.7493 287.524 36.1253 287.467 36.54 287.467C37.1325 287.467 37.6383 287.572 38.0576 287.781C38.4769 287.991 38.7982 288.271 39.0215 288.622C39.2448 288.968 39.3564 289.354 39.3564 289.777H38.0918C38.0918 289.572 38.0303 289.374 37.9072 289.183C37.7887 288.987 37.6133 288.825 37.3809 288.697C37.153 288.57 36.8727 288.506 36.54 288.506C36.1891 288.506 35.9043 288.561 35.6855 288.67C35.4714 288.775 35.3141 288.909 35.2139 289.073C35.1182 289.237 35.0703 289.41 35.0703 289.593C35.0703 289.729 35.0931 289.853 35.1387 289.962C35.1888 290.067 35.2754 290.165 35.3984 290.256C35.5215 290.342 35.6947 290.424 35.918 290.502C36.1413 290.579 36.4261 290.657 36.7725 290.734C37.3786 290.871 37.8776 291.035 38.2695 291.227C38.6615 291.418 38.9531 291.653 39.1445 291.931C39.3359 292.209 39.4316 292.546 39.4316 292.942C39.4316 293.266 39.3633 293.562 39.2266 293.831C39.0944 294.1 38.9007 294.332 38.6455 294.528C38.3949 294.72 38.0941 294.87 37.7432 294.979C37.3968 295.084 37.0072 295.137 36.5742 295.137C35.9225 295.137 35.3711 295.021 34.9199 294.788C34.4688 294.556 34.127 294.255 33.8945 293.886C33.6621 293.517 33.5459 293.127 33.5459 292.717H34.8174C34.8356 293.063 34.9359 293.339 35.1182 293.544C35.3005 293.744 35.5238 293.888 35.7881 293.975C36.0524 294.057 36.3145 294.098 36.5742 294.098C36.9206 294.098 37.21 294.052 37.4424 293.961C37.6794 293.87 37.8594 293.744 37.9824 293.585C38.1055 293.425 38.167 293.243 38.167 293.038ZM40.7578 291.384V291.227C40.7578 290.693 40.8353 290.199 40.9902 289.743C41.1452 289.283 41.3685 288.884 41.6602 288.547C41.9518 288.205 42.305 287.941 42.7197 287.754C43.1344 287.562 43.5993 287.467 44.1143 287.467C44.6338 287.467 45.1009 287.562 45.5156 287.754C45.9349 287.941 46.2904 288.205 46.582 288.547C46.8783 288.884 47.1038 289.283 47.2588 289.743C47.4137 290.199 47.4912 290.693 47.4912 291.227V291.384C47.4912 291.917 47.4137 292.411 47.2588 292.867C47.1038 293.323 46.8783 293.722 46.582 294.063C46.2904 294.401 45.9372 294.665 45.5225 294.856C45.1123 295.043 44.6475 295.137 44.1279 295.137C43.6084 295.137 43.1413 295.043 42.7266 294.856C42.3118 294.665 41.9564 294.401 41.6602 294.063C41.3685 293.722 41.1452 293.323 40.9902 292.867C40.8353 292.411 40.7578 291.917 40.7578 291.384ZM42.0225 291.227V291.384C42.0225 291.753 42.0658 292.102 42.1523 292.43C42.2389 292.753 42.3688 293.04 42.542 293.291C42.7197 293.542 42.9408 293.74 43.2051 293.886C43.4694 294.027 43.777 294.098 44.1279 294.098C44.4743 294.098 44.7773 294.027 45.0371 293.886C45.3014 293.74 45.5202 293.542 45.6934 293.291C45.8665 293.04 45.9964 292.753 46.083 292.43C46.1742 292.102 46.2197 291.753 46.2197 291.384V291.227C46.2197 290.862 46.1742 290.518 46.083 290.194C45.9964 289.866 45.8643 289.577 45.6865 289.326C45.5133 289.071 45.2946 288.87 45.0303 288.725C44.7705 288.579 44.4652 288.506 44.1143 288.506C43.7679 288.506 43.4626 288.579 43.1982 288.725C42.9385 288.87 42.7197 289.071 42.542 289.326C42.3688 289.577 42.2389 289.866 42.1523 290.194C42.0658 290.518 42.0225 290.862 42.0225 291.227ZM50.3418 288.766V295H49.0771V287.604H50.3076L50.3418 288.766ZM52.6523 287.562L52.6455 288.738C52.5407 288.715 52.4404 288.702 52.3447 288.697C52.2536 288.688 52.1488 288.684 52.0303 288.684C51.7386 288.684 51.4811 288.729 51.2578 288.82C51.0345 288.911 50.8454 289.039 50.6904 289.203C50.5355 289.367 50.4124 289.563 50.3213 289.791C50.2347 290.014 50.1777 290.26 50.1504 290.529L49.7949 290.734C49.7949 290.288 49.8382 289.868 49.9248 289.477C50.016 289.085 50.1549 288.738 50.3418 288.438C50.5286 288.132 50.7656 287.895 51.0527 287.727C51.3444 287.553 51.6908 287.467 52.0918 287.467C52.1829 287.467 52.2878 287.478 52.4062 287.501C52.5247 287.519 52.6068 287.54 52.6523 287.562ZM61.0332 290.345H58.5107L58.4971 289.285H60.7871C61.1654 289.285 61.4958 289.221 61.7783 289.094C62.0609 288.966 62.2796 288.784 62.4346 288.547C62.5941 288.305 62.6738 288.018 62.6738 287.686C62.6738 287.321 62.6032 287.025 62.4619 286.797C62.3252 286.564 62.1133 286.396 61.8262 286.291C61.5436 286.182 61.1836 286.127 60.7461 286.127H58.8047V295H57.4854V285.047H60.7461C61.2565 285.047 61.7122 285.099 62.1133 285.204C62.5143 285.304 62.8538 285.464 63.1318 285.683C63.4144 285.897 63.6286 286.17 63.7744 286.503C63.9202 286.836 63.9932 287.234 63.9932 287.699C63.9932 288.109 63.8883 288.481 63.6787 288.813C63.4691 289.142 63.1774 289.41 62.8037 289.62C62.4346 289.83 62.0016 289.964 61.5049 290.023L61.0332 290.345ZM60.9717 295H57.9912L58.7363 293.927H60.9717C61.391 293.927 61.7464 293.854 62.0381 293.708C62.3343 293.562 62.5599 293.357 62.7148 293.093C62.8698 292.824 62.9473 292.507 62.9473 292.143C62.9473 291.773 62.8812 291.454 62.749 291.186C62.6169 290.917 62.4095 290.709 62.127 290.563C61.8444 290.418 61.4798 290.345 61.0332 290.345H59.1533L59.167 289.285H61.7373L62.0176 289.668C62.4961 289.709 62.9017 289.846 63.2344 290.078C63.5671 290.306 63.82 290.598 63.9932 290.953C64.1709 291.309 64.2598 291.701 64.2598 292.129C64.2598 292.749 64.123 293.273 63.8496 293.701C63.5807 294.125 63.2002 294.449 62.708 294.672C62.2158 294.891 61.637 295 60.9717 295ZM70.3779 293.735V289.928C70.3779 289.636 70.3187 289.383 70.2002 289.169C70.0863 288.95 69.9131 288.782 69.6807 288.663C69.4482 288.545 69.1611 288.485 68.8193 288.485C68.5003 288.485 68.2201 288.54 67.9785 288.649C67.7415 288.759 67.5547 288.902 67.418 289.08C67.2858 289.258 67.2197 289.449 67.2197 289.654H65.9551C65.9551 289.39 66.0234 289.128 66.1602 288.868C66.2969 288.608 66.4928 288.374 66.748 288.164C67.0078 287.95 67.3177 287.781 67.6777 287.658C68.0423 287.531 68.4479 287.467 68.8945 287.467C69.4323 287.467 69.9062 287.558 70.3164 287.74C70.7311 287.923 71.0547 288.198 71.2871 288.567C71.5241 288.932 71.6426 289.39 71.6426 289.941V293.387C71.6426 293.633 71.6631 293.895 71.7041 294.173C71.7497 294.451 71.8158 294.69 71.9023 294.891V295H70.583C70.5192 294.854 70.4691 294.66 70.4326 294.419C70.3962 294.173 70.3779 293.945 70.3779 293.735ZM70.5967 290.516L70.6104 291.404H69.332C68.972 291.404 68.6507 291.434 68.3682 291.493C68.0856 291.548 67.8486 291.632 67.6572 291.746C67.4658 291.86 67.32 292.004 67.2197 292.177C67.1195 292.345 67.0693 292.544 67.0693 292.771C67.0693 293.004 67.1217 293.216 67.2266 293.407C67.3314 293.599 67.4886 293.751 67.6982 293.865C67.9124 293.975 68.1745 294.029 68.4844 294.029C68.8717 294.029 69.2135 293.947 69.5098 293.783C69.806 293.619 70.0407 293.419 70.2139 293.182C70.3916 292.945 70.4873 292.715 70.501 292.491L71.041 293.1C71.0091 293.291 70.9225 293.503 70.7812 293.735C70.64 293.968 70.4508 294.191 70.2139 294.405C69.9814 294.615 69.7035 294.79 69.3799 294.932C69.0609 295.068 68.7008 295.137 68.2998 295.137C67.7985 295.137 67.3587 295.039 66.9805 294.843C66.6068 294.647 66.3151 294.385 66.1055 294.057C65.9004 293.724 65.7979 293.353 65.7979 292.942C65.7979 292.546 65.8753 292.197 66.0303 291.896C66.1852 291.591 66.4085 291.338 66.7002 291.138C66.9919 290.933 67.3428 290.778 67.7529 290.673C68.1631 290.568 68.6211 290.516 69.127 290.516H70.5967ZM74.8965 289.183V295H73.6318V287.604H74.8281L74.8965 289.183ZM74.5957 291.021L74.0693 291.001C74.0739 290.495 74.1491 290.028 74.2949 289.6C74.4408 289.167 74.6458 288.791 74.9102 288.472C75.1745 288.153 75.4889 287.907 75.8535 287.733C76.2227 287.556 76.6305 287.467 77.0771 287.467C77.4417 287.467 77.7699 287.517 78.0615 287.617C78.3532 287.713 78.6016 287.868 78.8066 288.082C79.0163 288.296 79.1758 288.574 79.2852 288.916C79.3945 289.253 79.4492 289.666 79.4492 290.153V295H78.1777V290.14C78.1777 289.752 78.1208 289.442 78.0068 289.21C77.8929 288.973 77.7266 288.802 77.5078 288.697C77.2891 288.588 77.0202 288.533 76.7012 288.533C76.3867 288.533 76.0996 288.599 75.8398 288.731C75.5846 288.864 75.3636 289.046 75.1768 289.278C74.9945 289.511 74.8509 289.777 74.7461 290.078C74.6458 290.374 74.5957 290.689 74.5957 291.021ZM82.6416 284.5V295H81.3701V284.5H82.6416ZM87.1602 287.604L83.9336 291.056L82.1289 292.929L82.0264 291.582L83.3184 290.037L85.6152 287.604H87.1602ZM86.0049 295L83.3662 291.473L84.0225 290.345L87.4951 295H86.0049Z" fill="#12161E"/>
<path d="M3.47461 384.047V394H2.15527V384.047H3.47461ZM7.64453 388.524V389.604H3.1875V388.524H7.64453ZM8.32129 384.047V385.127H3.1875V384.047H8.32129ZM12.6211 394.137C12.1061 394.137 11.639 394.05 11.2197 393.877C10.805 393.699 10.4473 393.451 10.1465 393.132C9.85026 392.813 9.6224 392.435 9.46289 391.997C9.30339 391.56 9.22363 391.081 9.22363 390.562V390.274C9.22363 389.673 9.3125 389.137 9.49023 388.668C9.66797 388.194 9.90951 387.793 10.2148 387.465C10.5202 387.137 10.8665 386.888 11.2539 386.72C11.6413 386.551 12.0423 386.467 12.457 386.467C12.9857 386.467 13.4414 386.558 13.8242 386.74C14.2116 386.923 14.5283 387.178 14.7744 387.506C15.0205 387.829 15.2028 388.212 15.3213 388.654C15.4398 389.092 15.499 389.57 15.499 390.09V390.657H9.97559V389.625H14.2344V389.529C14.2161 389.201 14.1478 388.882 14.0293 388.572C13.9154 388.262 13.7331 388.007 13.4824 387.807C13.2318 387.606 12.89 387.506 12.457 387.506C12.1699 387.506 11.9056 387.567 11.6641 387.69C11.4225 387.809 11.2152 387.987 11.042 388.224C10.8688 388.461 10.7344 388.75 10.6387 389.092C10.543 389.434 10.4951 389.828 10.4951 390.274V390.562C10.4951 390.912 10.543 391.243 10.6387 391.553C10.7389 391.858 10.8825 392.127 11.0693 392.359C11.2607 392.592 11.4909 392.774 11.7598 392.906C12.0332 393.038 12.3431 393.104 12.6895 393.104C13.1361 393.104 13.5143 393.013 13.8242 392.831C14.1341 392.649 14.4053 392.405 14.6377 392.1L15.4033 392.708C15.2438 392.95 15.041 393.18 14.7949 393.398C14.5488 393.617 14.2458 393.795 13.8857 393.932C13.5303 394.068 13.1087 394.137 12.6211 394.137ZM21.6377 392.564V383.5H22.9092V394H21.7471L21.6377 392.564ZM16.6611 390.384V390.24C16.6611 389.675 16.7295 389.162 16.8662 388.702C17.0075 388.237 17.2057 387.839 17.4609 387.506C17.7207 387.173 18.0283 386.918 18.3838 386.74C18.7438 386.558 19.1449 386.467 19.5869 386.467C20.0518 386.467 20.4574 386.549 20.8037 386.713C21.1546 386.872 21.4508 387.107 21.6924 387.417C21.9385 387.722 22.1322 388.091 22.2734 388.524C22.4147 388.957 22.5127 389.447 22.5674 389.994V390.623C22.5173 391.165 22.4193 391.653 22.2734 392.086C22.1322 392.519 21.9385 392.888 21.6924 393.193C21.4508 393.499 21.1546 393.733 20.8037 393.897C20.4528 394.057 20.0426 394.137 19.5732 394.137C19.1403 394.137 18.7438 394.043 18.3838 393.856C18.0283 393.67 17.7207 393.408 17.4609 393.07C17.2057 392.733 17.0075 392.337 16.8662 391.881C16.7295 391.421 16.6611 390.922 16.6611 390.384ZM17.9326 390.24V390.384C17.9326 390.753 17.9691 391.099 18.042 391.423C18.1195 391.746 18.238 392.031 18.3975 392.277C18.557 392.523 18.7598 392.717 19.0059 392.858C19.252 392.995 19.5459 393.063 19.8877 393.063C20.307 393.063 20.651 392.975 20.9199 392.797C21.1934 392.619 21.4121 392.384 21.5762 392.093C21.7402 391.801 21.8678 391.484 21.959 391.143V389.495C21.9043 389.244 21.8245 389.003 21.7197 388.771C21.6195 388.534 21.4873 388.324 21.3232 388.142C21.1637 387.955 20.9655 387.807 20.7285 387.697C20.4961 387.588 20.2204 387.533 19.9014 387.533C19.555 387.533 19.2565 387.606 19.0059 387.752C18.7598 387.893 18.557 388.089 18.3975 388.34C18.238 388.586 18.1195 388.873 18.042 389.201C17.9691 389.525 17.9326 389.871 17.9326 390.24ZM27.9473 394.137C27.4323 394.137 26.9652 394.05 26.5459 393.877C26.1312 393.699 25.7734 393.451 25.4727 393.132C25.1764 392.813 24.9486 392.435 24.7891 391.997C24.6296 391.56 24.5498 391.081 24.5498 390.562V390.274C24.5498 389.673 24.6387 389.137 24.8164 388.668C24.9941 388.194 25.2357 387.793 25.541 387.465C25.8464 387.137 26.1927 386.888 26.5801 386.72C26.9674 386.551 27.3685 386.467 27.7832 386.467C28.3118 386.467 28.7676 386.558 29.1504 386.74C29.5378 386.923 29.8545 387.178 30.1006 387.506C30.3467 387.829 30.529 388.212 30.6475 388.654C30.766 389.092 30.8252 389.57 30.8252 390.09V390.657H25.3018V389.625H29.5605V389.529C29.5423 389.201 29.474 388.882 29.3555 388.572C29.2415 388.262 29.0592 388.007 28.8086 387.807C28.5579 387.606 28.2161 387.506 27.7832 387.506C27.4961 387.506 27.2318 387.567 26.9902 387.69C26.7487 387.809 26.5413 387.987 26.3682 388.224C26.195 388.461 26.0605 388.75 25.9648 389.092C25.8691 389.434 25.8213 389.828 25.8213 390.274V390.562C25.8213 390.912 25.8691 391.243 25.9648 391.553C26.0651 391.858 26.2087 392.127 26.3955 392.359C26.5869 392.592 26.8171 392.774 27.0859 392.906C27.3594 393.038 27.6693 393.104 28.0156 393.104C28.4622 393.104 28.8405 393.013 29.1504 392.831C29.4603 392.649 29.7314 392.405 29.9639 392.1L30.7295 392.708C30.57 392.95 30.3672 393.18 30.1211 393.398C29.875 393.617 29.5719 393.795 29.2119 393.932C28.8564 394.068 28.4349 394.137 27.9473 394.137ZM33.5664 387.766V394H32.3018V386.604H33.5322L33.5664 387.766ZM35.877 386.562L35.8701 387.738C35.7653 387.715 35.665 387.702 35.5693 387.697C35.4782 387.688 35.3734 387.684 35.2549 387.684C34.9632 387.684 34.7057 387.729 34.4824 387.82C34.2591 387.911 34.07 388.039 33.915 388.203C33.7601 388.367 33.637 388.563 33.5459 388.791C33.4593 389.014 33.4023 389.26 33.375 389.529L33.0195 389.734C33.0195 389.288 33.0628 388.868 33.1494 388.477C33.2406 388.085 33.3796 387.738 33.5664 387.438C33.7533 387.132 33.9902 386.895 34.2773 386.727C34.569 386.553 34.9154 386.467 35.3164 386.467C35.4076 386.467 35.5124 386.478 35.6309 386.501C35.7493 386.519 35.8314 386.54 35.877 386.562ZM41.1338 392.735V388.928C41.1338 388.636 41.0745 388.383 40.9561 388.169C40.8421 387.95 40.6689 387.782 40.4365 387.663C40.2041 387.545 39.917 387.485 39.5752 387.485C39.2562 387.485 38.9759 387.54 38.7344 387.649C38.4974 387.759 38.3105 387.902 38.1738 388.08C38.0417 388.258 37.9756 388.449 37.9756 388.654H36.7109C36.7109 388.39 36.7793 388.128 36.916 387.868C37.0527 387.608 37.2487 387.374 37.5039 387.164C37.7637 386.95 38.0736 386.781 38.4336 386.658C38.7982 386.531 39.2038 386.467 39.6504 386.467C40.1882 386.467 40.6621 386.558 41.0723 386.74C41.487 386.923 41.8105 387.198 42.043 387.567C42.2799 387.932 42.3984 388.39 42.3984 388.941V392.387C42.3984 392.633 42.4189 392.895 42.46 393.173C42.5055 393.451 42.5716 393.69 42.6582 393.891V394H41.3389C41.2751 393.854 41.2249 393.66 41.1885 393.419C41.152 393.173 41.1338 392.945 41.1338 392.735ZM41.3525 389.516L41.3662 390.404H40.0879C39.7279 390.404 39.4066 390.434 39.124 390.493C38.8415 390.548 38.6045 390.632 38.4131 390.746C38.2217 390.86 38.0758 391.004 37.9756 391.177C37.8753 391.345 37.8252 391.544 37.8252 391.771C37.8252 392.004 37.8776 392.216 37.9824 392.407C38.0872 392.599 38.2445 392.751 38.4541 392.865C38.6683 392.975 38.9303 393.029 39.2402 393.029C39.6276 393.029 39.9694 392.947 40.2656 392.783C40.5618 392.619 40.7965 392.419 40.9697 392.182C41.1475 391.945 41.2432 391.715 41.2568 391.491L41.7969 392.1C41.765 392.291 41.6784 392.503 41.5371 392.735C41.3958 392.968 41.2067 393.191 40.9697 393.405C40.7373 393.615 40.4593 393.79 40.1357 393.932C39.8167 394.068 39.4567 394.137 39.0557 394.137C38.5544 394.137 38.1146 394.039 37.7363 393.843C37.3626 393.647 37.071 393.385 36.8613 393.057C36.6562 392.724 36.5537 392.353 36.5537 391.942C36.5537 391.546 36.6312 391.197 36.7861 390.896C36.9411 390.591 37.1644 390.338 37.4561 390.138C37.7477 389.933 38.0986 389.778 38.5088 389.673C38.9189 389.568 39.377 389.516 39.8828 389.516H41.3525ZM45.7617 383.5V394H44.4902V383.5H45.7617ZM51.4561 384.047H54.751C55.4984 384.047 56.1296 384.161 56.6445 384.389C57.1641 384.617 57.5583 384.954 57.8271 385.4C58.1006 385.842 58.2373 386.387 58.2373 387.034C58.2373 387.49 58.1439 387.907 57.957 388.285C57.7747 388.659 57.5104 388.978 57.1641 389.242C56.8223 389.502 56.4121 389.696 55.9336 389.823L55.5645 389.967H52.4678L52.4541 388.894H54.792C55.266 388.894 55.6602 388.812 55.9746 388.647C56.2891 388.479 56.526 388.253 56.6855 387.971C56.8451 387.688 56.9248 387.376 56.9248 387.034C56.9248 386.651 56.8496 386.316 56.6992 386.029C56.5488 385.742 56.3118 385.521 55.9883 385.366C55.6693 385.207 55.2568 385.127 54.751 385.127H52.7754V394H51.4561V384.047ZM57.2734 394L54.8535 389.488L56.2275 389.481L58.6816 393.918V394H57.2734ZM62.9609 394.137C62.446 394.137 61.9788 394.05 61.5596 393.877C61.1449 393.699 60.7871 393.451 60.4863 393.132C60.1901 392.813 59.9622 392.435 59.8027 391.997C59.6432 391.56 59.5635 391.081 59.5635 390.562V390.274C59.5635 389.673 59.6523 389.137 59.8301 388.668C60.0078 388.194 60.2493 387.793 60.5547 387.465C60.86 387.137 61.2064 386.888 61.5938 386.72C61.9811 386.551 62.3822 386.467 62.7969 386.467C63.3255 386.467 63.7812 386.558 64.1641 386.74C64.5514 386.923 64.8682 387.178 65.1143 387.506C65.3604 387.829 65.5426 388.212 65.6611 388.654C65.7796 389.092 65.8389 389.57 65.8389 390.09V390.657H60.3154V389.625H64.5742V389.529C64.556 389.201 64.4876 388.882 64.3691 388.572C64.2552 388.262 64.0729 388.007 63.8223 387.807C63.5716 387.606 63.2298 387.506 62.7969 387.506C62.5098 387.506 62.2454 387.567 62.0039 387.69C61.7624 387.809 61.555 387.987 61.3818 388.224C61.2087 388.461 61.0742 388.75 60.9785 389.092C60.8828 389.434 60.835 389.828 60.835 390.274V390.562C60.835 390.912 60.8828 391.243 60.9785 391.553C61.0788 391.858 61.2223 392.127 61.4092 392.359C61.6006 392.592 61.8307 392.774 62.0996 392.906C62.373 393.038 62.6829 393.104 63.0293 393.104C63.4759 393.104 63.8542 393.013 64.1641 392.831C64.474 392.649 64.7451 392.405 64.9775 392.1L65.7432 392.708C65.5837 392.95 65.3809 393.18 65.1348 393.398C64.8887 393.617 64.5856 393.795 64.2256 393.932C63.8701 394.068 63.4486 394.137 62.9609 394.137ZM71.6221 392.038C71.6221 391.856 71.5811 391.687 71.499 391.532C71.4215 391.373 71.2598 391.229 71.0137 391.102C70.7721 390.969 70.4076 390.855 69.9199 390.76C69.5098 390.673 69.1383 390.571 68.8057 390.452C68.4775 390.334 68.1973 390.19 67.9648 390.021C67.737 389.853 67.5615 389.655 67.4385 389.427C67.3154 389.199 67.2539 388.932 67.2539 388.627C67.2539 388.335 67.3177 388.06 67.4453 387.8C67.5775 387.54 67.762 387.31 67.999 387.109C68.2406 386.909 68.5299 386.752 68.8672 386.638C69.2044 386.524 69.5804 386.467 69.9951 386.467C70.5876 386.467 71.0934 386.572 71.5127 386.781C71.932 386.991 72.2533 387.271 72.4766 387.622C72.6999 387.968 72.8115 388.354 72.8115 388.777H71.5469C71.5469 388.572 71.4854 388.374 71.3623 388.183C71.2438 387.987 71.0684 387.825 70.8359 387.697C70.6081 387.57 70.3278 387.506 69.9951 387.506C69.6442 387.506 69.3594 387.561 69.1406 387.67C68.9264 387.775 68.7692 387.909 68.6689 388.073C68.5732 388.237 68.5254 388.41 68.5254 388.593C68.5254 388.729 68.5482 388.853 68.5938 388.962C68.6439 389.067 68.7305 389.165 68.8535 389.256C68.9766 389.342 69.1497 389.424 69.373 389.502C69.5964 389.579 69.8812 389.657 70.2275 389.734C70.8337 389.871 71.3327 390.035 71.7246 390.227C72.1165 390.418 72.4082 390.653 72.5996 390.931C72.791 391.209 72.8867 391.546 72.8867 391.942C72.8867 392.266 72.8184 392.562 72.6816 392.831C72.5495 393.1 72.3558 393.332 72.1006 393.528C71.8499 393.72 71.5492 393.87 71.1982 393.979C70.8519 394.084 70.4622 394.137 70.0293 394.137C69.3776 394.137 68.8262 394.021 68.375 393.788C67.9238 393.556 67.582 393.255 67.3496 392.886C67.1172 392.517 67.001 392.127 67.001 391.717H68.2725C68.2907 392.063 68.391 392.339 68.5732 392.544C68.7555 392.744 68.9788 392.888 69.2432 392.975C69.5075 393.057 69.7695 393.098 70.0293 393.098C70.3757 393.098 70.665 393.052 70.8975 392.961C71.1344 392.87 71.3145 392.744 71.4375 392.585C71.5605 392.425 71.6221 392.243 71.6221 392.038ZM77.6172 394.137C77.1022 394.137 76.6351 394.05 76.2158 393.877C75.8011 393.699 75.4434 393.451 75.1426 393.132C74.8464 392.813 74.6185 392.435 74.459 391.997C74.2995 391.56 74.2197 391.081 74.2197 390.562V390.274C74.2197 389.673 74.3086 389.137 74.4863 388.668C74.6641 388.194 74.9056 387.793 75.2109 387.465C75.5163 387.137 75.8626 386.888 76.25 386.72C76.6374 386.551 77.0384 386.467 77.4531 386.467C77.9818 386.467 78.4375 386.558 78.8203 386.74C79.2077 386.923 79.5244 387.178 79.7705 387.506C80.0166 387.829 80.1989 388.212 80.3174 388.654C80.4359 389.092 80.4951 389.57 80.4951 390.09V390.657H74.9717V389.625H79.2305V389.529C79.2122 389.201 79.1439 388.882 79.0254 388.572C78.9115 388.262 78.7292 388.007 78.4785 387.807C78.2279 387.606 77.8861 387.506 77.4531 387.506C77.166 387.506 76.9017 387.567 76.6602 387.69C76.4186 387.809 76.2113 387.987 76.0381 388.224C75.8649 388.461 75.7305 388.75 75.6348 389.092C75.5391 389.434 75.4912 389.828 75.4912 390.274V390.562C75.4912 390.912 75.5391 391.243 75.6348 391.553C75.735 391.858 75.8786 392.127 76.0654 392.359C76.2568 392.592 76.487 392.774 76.7559 392.906C77.0293 393.038 77.3392 393.104 77.6855 393.104C78.1322 393.104 78.5104 393.013 78.8203 392.831C79.1302 392.649 79.4014 392.405 79.6338 392.1L80.3994 392.708C80.2399 392.95 80.0371 393.18 79.791 393.398C79.5449 393.617 79.2419 393.795 78.8818 393.932C78.5264 394.068 78.1048 394.137 77.6172 394.137ZM83.2363 387.766V394H81.9717V386.604H83.2021L83.2363 387.766ZM85.5469 386.562L85.54 387.738C85.4352 387.715 85.335 387.702 85.2393 387.697C85.1481 387.688 85.0433 387.684 84.9248 387.684C84.6331 387.684 84.3757 387.729 84.1523 387.82C83.929 387.911 83.7399 388.039 83.585 388.203C83.43 388.367 83.307 388.563 83.2158 388.791C83.1292 389.014 83.0723 389.26 83.0449 389.529L82.6895 389.734C82.6895 389.288 82.7327 388.868 82.8193 388.477C82.9105 388.085 83.0495 387.738 83.2363 387.438C83.4232 387.132 83.6602 386.895 83.9473 386.727C84.2389 386.553 84.5853 386.467 84.9863 386.467C85.0775 386.467 85.1823 386.478 85.3008 386.501C85.4193 386.519 85.5013 386.54 85.5469 386.562ZM89.0879 392.858L91.1113 386.604H92.4033L89.7441 394H88.8965L89.0879 392.858ZM87.3994 386.604L89.4844 392.893L89.6279 394H88.7803L86.1006 386.604H87.3994ZM96.5938 394.137C96.0788 394.137 95.6117 394.05 95.1924 393.877C94.7777 393.699 94.4199 393.451 94.1191 393.132C93.8229 392.813 93.5951 392.435 93.4355 391.997C93.276 391.56 93.1963 391.081 93.1963 390.562V390.274C93.1963 389.673 93.2852 389.137 93.4629 388.668C93.6406 388.194 93.8822 387.793 94.1875 387.465C94.4928 387.137 94.8392 386.888 95.2266 386.72C95.6139 386.551 96.015 386.467 96.4297 386.467C96.9583 386.467 97.4141 386.558 97.7969 386.74C98.1842 386.923 98.501 387.178 98.7471 387.506C98.9932 387.829 99.1755 388.212 99.2939 388.654C99.4124 389.092 99.4717 389.57 99.4717 390.09V390.657H93.9482V389.625H98.207V389.529C98.1888 389.201 98.1204 388.882 98.002 388.572C97.888 388.262 97.7057 388.007 97.4551 387.807C97.2044 387.606 96.8626 387.506 96.4297 387.506C96.1426 387.506 95.8783 387.567 95.6367 387.69C95.3952 387.809 95.1878 387.987 95.0146 388.224C94.8415 388.461 94.707 388.75 94.6113 389.092C94.5156 389.434 94.4678 389.828 94.4678 390.274V390.562C94.4678 390.912 94.5156 391.243 94.6113 391.553C94.7116 391.858 94.8551 392.127 95.042 392.359C95.2334 392.592 95.4635 392.774 95.7324 392.906C96.0059 393.038 96.3158 393.104 96.6621 393.104C97.1087 393.104 97.487 393.013 97.7969 392.831C98.1068 392.649 98.3779 392.405 98.6104 392.1L99.376 392.708C99.2165 392.95 99.0137 393.18 98.7676 393.398C98.5215 393.617 98.2184 393.795 97.8584 393.932C97.5029 394.068 97.0814 394.137 96.5938 394.137Z" fill="#12161E"/>
<path d="M8.16406 190.835H9.47656C9.4082 191.464 9.22819 192.027 8.93652 192.523C8.64486 193.02 8.23242 193.414 7.69922 193.706C7.16602 193.993 6.50065 194.137 5.70312 194.137C5.11979 194.137 4.58887 194.027 4.11035 193.809C3.63639 193.59 3.22852 193.28 2.88672 192.879C2.54492 192.473 2.2806 191.988 2.09375 191.423C1.91146 190.853 1.82031 190.22 1.82031 189.522V188.531C1.82031 187.834 1.91146 187.203 2.09375 186.638C2.2806 186.068 2.5472 185.58 2.89355 185.175C3.24447 184.769 3.66602 184.457 4.1582 184.238C4.65039 184.02 5.2041 183.91 5.81934 183.91C6.57129 183.91 7.20703 184.051 7.72656 184.334C8.24609 184.617 8.64941 185.008 8.93652 185.51C9.22819 186.007 9.4082 186.583 9.47656 187.239H8.16406C8.10026 186.774 7.98177 186.376 7.80859 186.043C7.63542 185.706 7.38932 185.446 7.07031 185.264C6.7513 185.081 6.33431 184.99 5.81934 184.99C5.37728 184.99 4.98763 185.075 4.65039 185.243C4.31771 185.412 4.03743 185.651 3.80957 185.961C3.58626 186.271 3.41764 186.642 3.30371 187.075C3.18978 187.508 3.13281 187.989 3.13281 188.518V189.522C3.13281 190.01 3.18294 190.468 3.2832 190.896C3.38802 191.325 3.54525 191.701 3.75488 192.024C3.96452 192.348 4.23112 192.603 4.55469 192.79C4.87826 192.972 5.26107 193.063 5.70312 193.063C6.26367 193.063 6.71029 192.975 7.04297 192.797C7.37565 192.619 7.6263 192.364 7.79492 192.031C7.9681 191.699 8.09115 191.3 8.16406 190.835ZM10.748 190.384V190.227C10.748 189.693 10.8255 189.199 10.9805 188.743C11.1354 188.283 11.3587 187.884 11.6504 187.547C11.9421 187.205 12.2952 186.941 12.71 186.754C13.1247 186.562 13.5895 186.467 14.1045 186.467C14.624 186.467 15.0911 186.562 15.5059 186.754C15.9251 186.941 16.2806 187.205 16.5723 187.547C16.8685 187.884 17.0941 188.283 17.249 188.743C17.404 189.199 17.4814 189.693 17.4814 190.227V190.384C17.4814 190.917 17.404 191.411 17.249 191.867C17.0941 192.323 16.8685 192.722 16.5723 193.063C16.2806 193.401 15.9274 193.665 15.5127 193.856C15.1025 194.043 14.6377 194.137 14.1182 194.137C13.5986 194.137 13.1315 194.043 12.7168 193.856C12.3021 193.665 11.9466 193.401 11.6504 193.063C11.3587 192.722 11.1354 192.323 10.9805 191.867C10.8255 191.411 10.748 190.917 10.748 190.384ZM12.0127 190.227V190.384C12.0127 190.753 12.056 191.102 12.1426 191.43C12.2292 191.753 12.359 192.04 12.5322 192.291C12.71 192.542 12.931 192.74 13.1953 192.886C13.4596 193.027 13.7673 193.098 14.1182 193.098C14.4645 193.098 14.7676 193.027 15.0273 192.886C15.2917 192.74 15.5104 192.542 15.6836 192.291C15.8568 192.04 15.9867 191.753 16.0732 191.43C16.1644 191.102 16.21 190.753 16.21 190.384V190.227C16.21 189.862 16.1644 189.518 16.0732 189.194C15.9867 188.866 15.8545 188.577 15.6768 188.326C15.5036 188.071 15.2848 187.87 15.0205 187.725C14.7607 187.579 14.4554 187.506 14.1045 187.506C13.7581 187.506 13.4528 187.579 13.1885 187.725C12.9287 187.87 12.71 188.071 12.5322 188.326C12.359 188.577 12.2292 188.866 12.1426 189.194C12.056 189.518 12.0127 189.862 12.0127 190.227ZM20.3252 188.073V194H19.0537V186.604H20.2568L20.3252 188.073ZM20.0654 190.021L19.4775 190.001C19.4821 189.495 19.5482 189.028 19.6758 188.6C19.8034 188.167 19.9925 187.791 20.2432 187.472C20.4938 187.153 20.806 186.907 21.1797 186.733C21.5534 186.556 21.9863 186.467 22.4785 186.467C22.8249 186.467 23.1439 186.517 23.4355 186.617C23.7272 186.713 23.9801 186.866 24.1943 187.075C24.4085 187.285 24.5749 187.554 24.6934 187.882C24.8118 188.21 24.8711 188.606 24.8711 189.071V194H23.6064V189.133C23.6064 188.745 23.5404 188.436 23.4082 188.203C23.2806 187.971 23.0983 187.802 22.8613 187.697C22.6243 187.588 22.3464 187.533 22.0273 187.533C21.6536 187.533 21.3415 187.599 21.0908 187.731C20.8402 187.864 20.6396 188.046 20.4893 188.278C20.3389 188.511 20.2295 188.777 20.1611 189.078C20.0973 189.374 20.0654 189.689 20.0654 190.021ZM24.8574 189.324L24.0098 189.584C24.0143 189.178 24.0804 188.789 24.208 188.415C24.3402 188.041 24.5293 187.709 24.7754 187.417C25.026 187.125 25.3337 186.895 25.6982 186.727C26.0628 186.553 26.4798 186.467 26.9492 186.467C27.3457 186.467 27.6966 186.519 28.002 186.624C28.3118 186.729 28.5716 186.891 28.7812 187.109C28.9954 187.324 29.1572 187.599 29.2666 187.937C29.376 188.274 29.4307 188.675 29.4307 189.14V194H28.1592V189.126C28.1592 188.711 28.0931 188.39 27.9609 188.162C27.8333 187.93 27.651 187.768 27.4141 187.677C27.1816 187.581 26.9036 187.533 26.5801 187.533C26.3021 187.533 26.056 187.581 25.8418 187.677C25.6276 187.772 25.4476 187.905 25.3018 188.073C25.1559 188.237 25.0443 188.426 24.9668 188.641C24.8939 188.855 24.8574 189.083 24.8574 189.324ZM32.6094 188.025V196.844H31.3379V186.604H32.5L32.6094 188.025ZM37.5928 190.24V190.384C37.5928 190.922 37.529 191.421 37.4014 191.881C37.2738 192.337 37.0869 192.733 36.8408 193.07C36.5993 193.408 36.3008 193.67 35.9453 193.856C35.5898 194.043 35.182 194.137 34.7217 194.137C34.2523 194.137 33.8376 194.059 33.4775 193.904C33.1175 193.749 32.8122 193.524 32.5615 193.228C32.3109 192.931 32.1104 192.576 31.96 192.161C31.8141 191.746 31.7139 191.279 31.6592 190.76V189.994C31.7139 189.447 31.8164 188.957 31.9668 188.524C32.1172 188.091 32.3154 187.722 32.5615 187.417C32.8122 187.107 33.1152 186.872 33.4707 186.713C33.8262 186.549 34.2363 186.467 34.7012 186.467C35.166 186.467 35.5785 186.558 35.9385 186.74C36.2985 186.918 36.6016 187.173 36.8477 187.506C37.0938 187.839 37.2783 188.237 37.4014 188.702C37.529 189.162 37.5928 189.675 37.5928 190.24ZM36.3213 190.384V190.24C36.3213 189.871 36.2826 189.525 36.2051 189.201C36.1276 188.873 36.0068 188.586 35.8428 188.34C35.6833 188.089 35.4782 187.893 35.2275 187.752C34.9769 187.606 34.6784 187.533 34.332 187.533C34.013 187.533 33.735 187.588 33.498 187.697C33.2656 187.807 33.0674 187.955 32.9033 188.142C32.7393 188.324 32.6048 188.534 32.5 188.771C32.3997 189.003 32.3245 189.244 32.2744 189.495V191.266C32.3656 191.585 32.4932 191.885 32.6572 192.168C32.8213 192.446 33.04 192.672 33.3135 192.845C33.5869 193.013 33.931 193.098 34.3457 193.098C34.6875 193.098 34.9814 193.027 35.2275 192.886C35.4782 192.74 35.6833 192.542 35.8428 192.291C36.0068 192.04 36.1276 191.753 36.2051 191.43C36.2826 191.102 36.3213 190.753 36.3213 190.384ZM43.5674 192.735V188.928C43.5674 188.636 43.5081 188.383 43.3896 188.169C43.2757 187.95 43.1025 187.782 42.8701 187.663C42.6377 187.545 42.3506 187.485 42.0088 187.485C41.6898 187.485 41.4095 187.54 41.168 187.649C40.931 187.759 40.7441 187.902 40.6074 188.08C40.4753 188.258 40.4092 188.449 40.4092 188.654H39.1445C39.1445 188.39 39.2129 188.128 39.3496 187.868C39.4863 187.608 39.6823 187.374 39.9375 187.164C40.1973 186.95 40.5072 186.781 40.8672 186.658C41.2318 186.531 41.6374 186.467 42.084 186.467C42.6217 186.467 43.0957 186.558 43.5059 186.74C43.9206 186.923 44.2441 187.198 44.4766 187.567C44.7135 187.932 44.832 188.39 44.832 188.941V192.387C44.832 192.633 44.8525 192.895 44.8936 193.173C44.9391 193.451 45.0052 193.69 45.0918 193.891V194H43.7725C43.7087 193.854 43.6585 193.66 43.6221 193.419C43.5856 193.173 43.5674 192.945 43.5674 192.735ZM43.7861 189.516L43.7998 190.404H42.5215C42.1615 190.404 41.8402 190.434 41.5576 190.493C41.2751 190.548 41.0381 190.632 40.8467 190.746C40.6553 190.86 40.5094 191.004 40.4092 191.177C40.3089 191.345 40.2588 191.544 40.2588 191.771C40.2588 192.004 40.3112 192.216 40.416 192.407C40.5208 192.599 40.6781 192.751 40.8877 192.865C41.1019 192.975 41.3639 193.029 41.6738 193.029C42.0612 193.029 42.403 192.947 42.6992 192.783C42.9954 192.619 43.2301 192.419 43.4033 192.182C43.5811 191.945 43.6768 191.715 43.6904 191.491L44.2305 192.1C44.1986 192.291 44.112 192.503 43.9707 192.735C43.8294 192.968 43.6403 193.191 43.4033 193.405C43.1709 193.615 42.8929 193.79 42.5693 193.932C42.2503 194.068 41.8903 194.137 41.4893 194.137C40.988 194.137 40.5482 194.039 40.1699 193.843C39.7962 193.647 39.5046 193.385 39.2949 193.057C39.0898 192.724 38.9873 192.353 38.9873 191.942C38.9873 191.546 39.0648 191.197 39.2197 190.896C39.3747 190.591 39.598 190.338 39.8896 190.138C40.1813 189.933 40.5322 189.778 40.9424 189.673C41.3525 189.568 41.8105 189.516 42.3164 189.516H43.7861ZM48.0859 188.183V194H46.8213V186.604H48.0176L48.0859 188.183ZM47.7852 190.021L47.2588 190.001C47.2633 189.495 47.3385 189.028 47.4844 188.6C47.6302 188.167 47.8353 187.791 48.0996 187.472C48.3639 187.153 48.6784 186.907 49.043 186.733C49.4121 186.556 49.82 186.467 50.2666 186.467C50.6312 186.467 50.9593 186.517 51.251 186.617C51.5426 186.713 51.791 186.868 51.9961 187.082C52.2057 187.296 52.3652 187.574 52.4746 187.916C52.584 188.253 52.6387 188.666 52.6387 189.153V194H51.3672V189.14C51.3672 188.752 51.3102 188.442 51.1963 188.21C51.0824 187.973 50.916 187.802 50.6973 187.697C50.4785 187.588 50.2096 187.533 49.8906 187.533C49.5762 187.533 49.2891 187.599 49.0293 187.731C48.7741 187.864 48.5531 188.046 48.3662 188.278C48.1839 188.511 48.0404 188.777 47.9355 189.078C47.8353 189.374 47.7852 189.689 47.7852 190.021ZM56.6377 193.234L58.6953 186.604H60.0488L57.082 195.142C57.0137 195.324 56.9225 195.52 56.8086 195.729C56.6992 195.944 56.5579 196.146 56.3848 196.338C56.2116 196.529 56.002 196.684 55.7559 196.803C55.5143 196.926 55.2249 196.987 54.8877 196.987C54.7874 196.987 54.6598 196.974 54.5049 196.946C54.3499 196.919 54.2406 196.896 54.1768 196.878L54.1699 195.853C54.2064 195.857 54.2633 195.862 54.3408 195.866C54.4229 195.875 54.4798 195.88 54.5117 195.88C54.7988 195.88 55.0426 195.841 55.2432 195.764C55.4437 195.691 55.6123 195.565 55.749 195.388C55.8903 195.215 56.0111 194.975 56.1113 194.67L56.6377 193.234ZM55.127 186.604L57.0479 192.346L57.376 193.679L56.4668 194.144L53.7461 186.604H55.127Z" fill="#12161E"/>
<defs>
<filter id="filter0_d_17_2" x="152" y="103" width="412" height="306.819" filterUnits="userSpaceOnUse" color-interpolation-filters="sRGB">
<feFlood flood-opacity="0" result="BackgroundImageFix"/>
<feColorMatrix in="SourceAlpha" type="matrix" values="0 0 0 0 0 0 0 0 0 0 0 0 0 0 0 0 0 0 127 0" result="hardAlpha"/>
<feOffset/>
<feGaussianBlur stdDeviation="28"/>
<feComposite in2="hardAlpha" operator="out"/>
<feColorMatrix type="matrix" values="0 0 0 0 1 0 0 0 0 1 0 0 0 0 1 0 0 0 0.3 0"/>
<feBlend mode="normal" in2="BackgroundImageFix" result="effect1_dropShadow_17_2"/>
<feBlend mode="normal" in="SourceGraphic" in2="effect1_dropShadow_17_2" result="shape"/>
</filter>
<filter id="filter1_d_17_2" x="152" y="24" width="412" height="306.819" filterUnits="userSpaceOnUse" color-interpolation-filters="sRGB">
<feFlood flood-opacity="0" result="BackgroundImageFix"/>
<feColorMatrix in="SourceAlpha" type="matrix" values="0 0 0 0 0 0 0 0 0 0 0 0 0 0 0 0 0 0 127 0" result="hardAlpha"/>
<feOffset/>
<feGaussianBlur stdDeviation="28"/>
<feComposite in2="hardAlpha" operator="out"/>
<feColorMatrix type="matrix" values="0 0 0 0 1 0 0 0 0 1 0 0 0 0 1 0 0 0 0.3 0"/>
<feBlend mode="normal" in2="BackgroundImageFix" result="effect1_dropShadow_17_2"/>
<feBlend mode="normal" in="SourceGraphic" in2="effect1_dropShadow_17_2" result="shape"/>
</filter>
<filter id="filter2_d_17_2" x="152" y="64" width="412" height="306.819" filterUnits="userSpaceOnUse" color-interpolation-filters="sRGB">
<feFlood flood-opacity="0" result="BackgroundImageFix"/>
<feColorMatrix in="SourceAlpha" type="matrix" values="0 0 0 0 0 0 0 0 0 0 0 0 0 0 0 0 0 0 127 0" result="hardAlpha"/>
<feOffset/>
<feGaussianBlur stdDeviation="28"/>
<feComposite in2="hardAlpha" operator="out"/>
<feColorMatrix type="matrix" values="0 0 0 0 1 0 0 0 0 1 0 0 0 0 1 0 0 0 0.3 0"/>
<feBlend mode="normal" in2="BackgroundImageFix" result="effect1_dropShadow_17_2"/>
<feBlend mode="normal" in="SourceGraphic" in2="effect1_dropShadow_17_2" result="shape"/>
</filter>
<filter id="filter3_d_17_2" x="175.692" y="236.692" width="364.616" height="260.98" filterUnits="userSpaceOnUse" color-interpolation-filters="sRGB">
<feFlood flood-opacity="0" result="BackgroundImageFix"/>
<feColorMatrix in="SourceAlpha" type="matrix" values="0 0 0 0 0 0 0 0 0 0 0 0 0 0 0 0 0 0 127 0" result="hardAlpha"/>
<feOffset/>
<feGaussianBlur stdDeviation="16.154"/>
<feComposite in2="hardAlpha" operator="out"/>
<feColorMatrix type="matrix" values="0 0 0 0 1 0 0 0 0 1 0 0 0 0 1 0 0 0 0.2 0"/>
<feBlend mode="normal" in2="BackgroundImageFix" result="effect1_dropShadow_17_2"/>
<feBlend mode="normal" in="SourceGraphic" in2="effect1_dropShadow_17_2" result="shape"/>
</filter>
<linearGradient id="paint0_linear_17_2" x1="399.501" y1="253.012" x2="233.51" y2="253.012" gradientUnits="userSpaceOnUse">
<stop stop-color="white" stop-opacity="0"/>
<stop offset="0.589" stop-color="white"/>
<stop offset="1" stop-color="white" stop-opacity="0"/>
</linearGradient>
<linearGradient id="paint1_linear_17_2" x1="294.585" y1="275.469" x2="262.687" y2="137.103" gradientUnits="userSpaceOnUse">
<stop stop-color="white"/>
<stop offset="1" stop-color="#ECEFF7" stop-opacity="0.9"/>
</linearGradient>
<linearGradient id="paint2_linear_17_2" x1="399.501" y1="91.0501" x2="233.51" y2="91.0501" gradientUnits="userSpaceOnUse">
<stop stop-color="white" stop-opacity="0"/>
<stop offset="0.589" stop-color="white"/>
<stop offset="1" stop-color="white" stop-opacity="0"/>
</linearGradient>
<linearGradient id="paint3_linear_17_2" x1="491.537" y1="60.4687" x2="35.3128" y2="290.476" gradientUnits="userSpaceOnUse">
<stop stop-color="white"/>
<stop offset="1" stop-color="#ECEFF7" stop-opacity="0.9"/>
</linearGradient>
<linearGradient id="paint4_linear_17_2" x1="399.501" y1="174.012" x2="233.51" y2="174.012" gradientUnits="userSpaceOnUse">
<stop stop-color="white" stop-opacity="0"/>
<stop offset="0.589" stop-color="white"/>
<stop offset="1" stop-color="white" stop-opacity="0"/>
</linearGradient>
<linearGradient id="paint5_linear_17_2" x1="399.501" y1="214.012" x2="233.51" y2="214.012" gradientUnits="userSpaceOnUse">
<stop stop-color="white" stop-opacity="0"/>
<stop offset="0.589" stop-color="white"/>
<stop offset="1" stop-color="white" stop-opacity="0"/>
</linearGradient>
<linearGradient id="paint6_linear_17_2" x1="399.502" y1="261.407" x2="233.51" y2="261.407" gradientUnits="userSpaceOnUse">
<stop stop-color="white" stop-opacity="0"/>
<stop offset="0.589" stop-color="white"/>
<stop offset="1" stop-color="white" stop-opacity="0"/>
</linearGradient>
<linearGradient id="paint7_linear_17_2" x1="509.341" y1="472.395" x2="208" y2="472.395" gradientUnits="userSpaceOnUse">
<stop stop-color="white" stop-opacity="0"/>
<stop offset="0.681" stop-color="white"/>
<stop offset="1" stop-color="white" stop-opacity="0"/>
</linearGradient>
<linearGradient id="paint8_linear_17_2" x1="399.502" y1="364.246" x2="233.51" y2="364.246" gradientUnits="userSpaceOnUse">
<stop stop-color="white" stop-opacity="0"/>
<stop offset="0.589" stop-color="white"/>
<stop offset="1" stop-color="white" stop-opacity="0"/>
</linearGradient>
<clipPath id="clip0_17_2">
<rect width="300" height="235" fill="white" transform="translate(208 159)"/>
</clipPath>
<clipPath id="clip1_17_2">
<rect width="300" height="215" fill="white" transform="translate(208)"/>
</clipPath>
<clipPath id="clip2_17_2">
<rect width="300" height="235" fill="white" transform="translate(208 80)"/>
</clipPath>
<clipPath id="clip3_17_2">
<rect width="300" height="235" fill="white" transform="translate(208 120)"/>
</clipPath>
<clipPath id="clip4_17_2">
<rect width="300" height="206" fill="white" transform="translate(208 166)"/>
</clipPath>
<clipPath id="clip5_17_2">
<rect width="300" height="216" fill="white" transform="translate(208 269)"/>
</clipPath>
</defs>
</svg>
